<svg xmlns="http://www.w3.org/2000/svg" width="35.969" height="16.969" viewBox="0 0 35.969 16.969">
  <defs>
    <style>
      .cls-1 {
        fill-rule: evenodd;
      }
    </style>
  </defs>
  <path id="_360" data-name="360" class="cls-1" d="M257.716,74.878a0.743,0.743,0,0,1-.378-0.1,0.763,0.763,0,0,1-.376-0.659V66.2a0.764,0.764,0,0,1,.376-0.66,0.742,0.742,0,0,1,.751,0l6.849,3.956a0.768,0.768,0,0,1,0,1.325l-6.85,3.956A0.747,0.747,0,0,1,257.716,74.878Zm0.753-7.362V72.8l4.575-2.643Zm-1.519,3.405a0.765,0.765,0,0,1-.115-0.009c-6.791-1.057-10.845-3.388-10.845-6.235,0-4.394,9.272-6.765,18-6.765s18,2.371,18,6.765c0,2.629-3.595,4.881-9.616,6.025a0.752,0.752,0,0,1-.88-0.609,0.764,0.764,0,0,1,.6-0.891c5.794-1.1,8.387-3.065,8.387-4.525,0-2.478-6.771-5.239-16.489-5.239S247.5,62.2,247.5,64.678c0,1.559,2.994,3.7,9.566,4.727A0.763,0.763,0,0,1,256.95,70.922Z" transform="translate(-246 -57.906)"/>
</svg>
