<svg xmlns="http://www.w3.org/2000/svg" width="67" height="41" viewBox="0 0 67 41">
  <defs>
    <style>
      .cls-1 {
        fill-rule: evenodd;
      }
    </style>
  </defs>
  <path id="Academic" class="cls-1" d="M854.844,416.772v-9.1h0.111a0.158,0.158,0,0,0,.028-0.117,1.211,1.211,0,0,0-.863-1.131l-31.226-10.38a1.27,1.27,0,0,0-.8.01L790.869,406.46a1.264,1.264,0,0,0-.863,1.174,1.175,1.175,0,0,0,.713,1.2l9.242,3.492v16.283a1.367,1.367,0,0,0,.291.646c0.908,4.676,13.414,7.743,21.759,7.743a47.939,47.939,0,0,0,14.253-2.222c3.439-1.14,7.444-3.119,7.444-6.065,0-.194-0.219-0.376-0.219-0.54V412.745l8.831-3.3v7.223a3.483,3.483,0,0,0,1.29,6.733A3.4,3.4,0,0,0,857,419.94,3.475,3.475,0,0,0,854.844,416.772ZM841.14,429c-0.754,2.185-9.636,5.478-19.129,5.478-9.543,0-19.321-3.7-19.321-5.768,0-.194-0.206-0.376-0.206-0.54v-14.9l19.462,7.228a1.582,1.582,0,0,0,.5.079,0.873,0.873,0,0,0,.363-0.079l18.161-6.812v14.925A1.445,1.445,0,0,0,841.14,429Zm-18.646-11.029L795.05,407.727l27.444-9.141,27.445,9.141Zm31.169,3.539a1.574,1.574,0,1,1,1.577-1.574A1.577,1.577,0,0,1,853.663,421.514Z" transform="translate(-790 -396)"/>
</svg>
