<svg xmlns="http://www.w3.org/2000/svg" width="77" height="27.031" viewBox="0 0 77 27.031">
  <defs>
    <style>
      .cls-1 {
        fill-rule: evenodd;
      }
    </style>
  </defs>
  <path id="AppStore" class="cls-1" d="M550.5,64.974h1.44a0.168,0.168,0,1,0,0-.336H550.5a0.168,0.168,0,1,0,0,.336m0.719,12.455a0.74,0.74,0,1,0,.75.74,0.744,0.744,0,0,0-.75-0.74m-3.673-.634h7.349V66.069h-7.349V76.8ZM571.1,73.273a1.476,1.476,0,0,0-.947.341,1.6,1.6,0,0,0-.557.9,1.892,1.892,0,0,0-.064.427v1.045a1.658,1.658,0,0,0,.424,1.157,1.425,1.425,0,0,0,1.105.469,1.456,1.456,0,0,0,1.244-.606,2.652,2.652,0,0,0,.443-1.6,2.55,2.55,0,0,0-.417-1.509,1.463,1.463,0,0,0-1.231-.622m25.771-.087a1.419,1.419,0,0,0-1.293.747,2.783,2.783,0,0,0-.38,1.5,2.744,2.744,0,0,0,.38,1.481,1.425,1.425,0,0,0,1.283.745,1.408,1.408,0,0,0,1.265-.761,2.739,2.739,0,0,0,.395-1.49,2.786,2.786,0,0,0-.378-1.479,1.408,1.408,0,0,0-1.272-.747m-18.784.087a1.475,1.475,0,0,0-.948.341,1.612,1.612,0,0,0-.557.9,1.784,1.784,0,0,0-.064.427v1.045a1.658,1.658,0,0,0,.424,1.157,1.425,1.425,0,0,0,1.1.469,1.453,1.453,0,0,0,1.245-.606,2.646,2.646,0,0,0,.446-1.6,2.572,2.572,0,0,0-.418-1.509,1.469,1.469,0,0,0-1.232-.622m-14.6-2.245h-0.025c-0.088.371-.226,0.915-0.42,1.64l-0.733,2.273h2.367l-0.741-2.273q-0.122-.35-0.448-1.64m44.1,2.09a1.36,1.36,0,0,0-1.125.571,2.051,2.051,0,0,0-.418,1.082h2.943a1.906,1.906,0,0,0-.273-1.07,1.249,1.249,0,0,0-1.127-.582m-37.868-6.192a0.583,0.583,0,0,0,.019-0.18V66.3c-0.584-.007-1.142.112-1.142,0.6a0.432,0.432,0,0,0,.47.465,0.681,0.681,0,0,0,.653-0.445m-7.709-2.032c-0.088-.272-0.162-0.578-0.229-0.836h-0.014c-0.067.258-.142,0.571-0.215,0.836L561.2,66h1.163Zm46.881-.318a1.412,1.412,0,0,1,1.413,1.574,2.021,2.021,0,0,1-.027.345h-2.192a0.882,0.882,0,0,0,1.008.836A2.649,2.649,0,0,0,610,67.184l0.122,0.558a2.978,2.978,0,0,1-1.143.206,1.54,1.54,0,0,1-1.688-1.633,1.608,1.608,0,0,1,1.6-1.739m-13.124.073,0.041,0.485h0.02a1.2,1.2,0,0,1,1.049-.558,1.184,1.184,0,0,1,1.163,1.387v1.918h-0.827V66.056a0.669,0.669,0,0,0-.626-0.816,0.694,0.694,0,0,0-.646.478,0.742,0.742,0,0,0-.04.258v1.9h-0.826V65.611c0-.371-0.014-0.684-0.027-0.963h0.719Zm-8.685-.073A1.412,1.412,0,0,1,588.5,66.15a1.922,1.922,0,0,1-.027.345h-2.192a0.883,0.883,0,0,0,1.009.836,2.658,2.658,0,0,0,.907-0.146l0.121,0.558a2.978,2.978,0,0,1-1.143.206,1.539,1.539,0,0,1-1.688-1.633,1.609,1.609,0,0,1,1.6-1.739m-3.39-1.407h0.827v4.712h-0.827V63.169Zm-6.56,1.984a1.743,1.743,0,0,0-.88.24l-0.162-.531a2.374,2.374,0,0,1,1.184-.286,1.219,1.219,0,0,1,1.352,1.367V67.1a4.338,4.338,0,0,0,.053.776h-0.746l-0.061-.358h-0.02a1.2,1.2,0,0,1-.968.432,0.968,0.968,0,0,1-1.03-.963c0-.81.733-1.228,1.944-1.222V65.718a0.554,0.554,0,0,0-.666-0.565m-4.89-1.852a0.442,0.442,0,1,1-.464.444,0.439,0.439,0,0,1,.464-0.444m0.409,4.579h-0.826V64.649h0.826v3.232Zm-11.375-4.473h1.056l1.473,4.473h-0.895L562.5,66.614h-1.434l-0.389,1.267h-0.855ZM555.77,78.241a1.439,1.439,0,0,1-1.449,1.427h-6.21a1.44,1.44,0,0,1-1.45-1.427V64.619a1.441,1.441,0,0,1,1.45-1.429h6.21a1.441,1.441,0,0,1,1.449,1.429V78.241Zm9.984,0.327-0.824-2.554h-2.865l-0.786,2.554h-1.464l2.837-8.7h1.754l2.853,8.7h-1.5Zm0.321-10.687h-0.814l-1.217-3.232h0.894l0.531,1.64c0.094,0.286.162,0.544,0.222,0.81h0.021c0.06-.266.135-0.518,0.221-0.81l0.526-1.64h0.867Zm1.7-.889c0-.81.733-1.228,1.944-1.222V65.718a0.554,0.554,0,0,0-.666-0.565,1.74,1.74,0,0,0-.88.24l-0.162-.531a2.369,2.369,0,0,1,1.183-.286,1.218,1.218,0,0,1,1.352,1.367V67.1a4.238,4.238,0,0,0,.054.776h-0.747l-0.06-.358h-0.02a1.2,1.2,0,0,1-.968.432,0.967,0.967,0,0,1-1.03-.963m5.532,10.893a2.6,2.6,0,0,1-1.959.825,1.963,1.963,0,0,1-1.815-.893v3.3h-1.412V74.355c0-.671-0.018-1.357-0.054-2.062h1.243l0.078,0.994h0.025a2.539,2.539,0,0,1,4.026-.243,3.441,3.441,0,0,1,.751,2.311,3.52,3.52,0,0,1-.883,2.531m1.47-10h-0.827V63.169h0.827v4.712Zm5.515,10a2.6,2.6,0,0,1-1.96.825,1.964,1.964,0,0,1-1.813-.893v3.3h-1.414V74.355c0-.671-0.018-1.357-0.051-2.062h1.238l0.082,0.994H576.4a2.538,2.538,0,0,1,4.025-.243,3.427,3.427,0,0,1,.753,2.311,3.516,3.516,0,0,1-.884,2.531m0.97-9.931a1.13,1.13,0,0,1-1.035-.558h-0.014l-0.04.484h-0.706c0.013-.219.027-0.576,0.027-0.909v-3.8h0.827v1.924h0.013a1.191,1.191,0,0,1,1.049-.517,1.444,1.444,0,0,1,1.366,1.64,1.556,1.556,0,0,1-1.487,1.739m7.112,9.98a3.508,3.508,0,0,1-2.4.761,4.258,4.258,0,0,1-2.286-.541l0.329-1.162a3.983,3.983,0,0,0,2.038.542,1.952,1.952,0,0,0,1.244-.355,1.154,1.154,0,0,0,.444-0.952,1.209,1.209,0,0,0-.366-0.888,3.451,3.451,0,0,0-1.216-.671q-2.313-.85-2.315-2.491a2.185,2.185,0,0,1,.816-1.757,3.269,3.269,0,0,1,2.166-.684,4.366,4.366,0,0,1,2,.412l-0.356,1.137a3.536,3.536,0,0,0-1.693-.4,1.776,1.776,0,0,0-1.169.36,1.045,1.045,0,0,0-.353.79,1.074,1.074,0,0,0,.4.854,4.656,4.656,0,0,0,1.281.669,4.284,4.284,0,0,1,1.676,1.06,2.2,2.2,0,0,1,.536,1.509,2.308,2.308,0,0,1-.781,1.807m4.981-4.6H591.8v3.05c0,0.775.277,1.158,0.827,1.158a2.619,2.619,0,0,0,.627-0.06l0.04,1.056a3.25,3.25,0,0,1-1.1.155,1.693,1.693,0,0,1-1.307-.5,2.42,2.42,0,0,1-.474-1.69V73.338h-0.928V72.292h0.928V71.144l1.385-.414v1.562h1.56v1.046Zm-0.8-5.383a1.573,1.573,0,0,1-1.641-1.666,1.606,1.606,0,0,1,1.7-1.713,1.561,1.561,0,0,1,1.627,1.659,1.612,1.612,0,0,1-1.681,1.719m6.593,9.8a3.02,3.02,0,0,1-2.328.953,2.866,2.866,0,0,1-2.234-.916,3.316,3.316,0,0,1-.829-2.312,3.38,3.38,0,0,1,.857-2.388,2.975,2.975,0,0,1,2.307-.928,2.914,2.914,0,0,1,2.252.916,3.283,3.283,0,0,1,.811,2.3,3.421,3.421,0,0,1-.836,2.378m1.46-13.109h0.464v-0.6l0.814-.226v0.83h0.786V65.26h-0.786v1.427c0,0.4.108,0.6,0.423,0.6a1.128,1.128,0,0,0,.323-0.033l0.013,0.617a1.833,1.833,0,0,1-.6.087,0.955,0.955,0,0,1-.713-0.266,1.265,1.265,0,0,1-.262-0.909V65.26h-0.464V64.649Zm3.626,8.87a2.472,2.472,0,0,0-.444-0.035,1.346,1.346,0,0,0-1.152.554,2.055,2.055,0,0,0-.353,1.239v3.292h-1.413v-4.3c0-.718-0.013-1.378-0.038-1.974h1.23l0.052,1.2h0.039a2.121,2.121,0,0,1,.707-0.992,1.711,1.711,0,0,1,1.021-.334,2.342,2.342,0,0,1,.351.023v1.329Zm0.215-7.577v1.938h-0.827V63.169h0.827v1.918h0.013a1.071,1.071,0,0,1,.41-0.365,1.171,1.171,0,0,1,1.716,1.253v1.9h-0.828V66.063a0.675,0.675,0,0,0-.632-0.823,0.689,0.689,0,0,0-.646.457,0.748,0.748,0,0,0-.033.245m5.831,9.826h-4.239a1.8,1.8,0,0,0,.615,1.417,2.109,2.109,0,0,0,1.386.441,4.673,4.673,0,0,0,1.714-.3l0.222,0.97a5.338,5.338,0,0,1-2.134.386,3.105,3.105,0,0,1-2.319-.856,3.15,3.15,0,0,1-.847-2.3,3.585,3.585,0,0,1,.786-2.366,2.732,2.732,0,0,1,2.224-1.005,2.375,2.375,0,0,1,2.081,1.005,3.375,3.375,0,0,1,.562,1.979,3.467,3.467,0,0,1-.051.634m-29.2-10.555a0.767,0.767,0,0,0-.733.6,0.92,0.92,0,0,0-.027.212v0.524a0.923,0.923,0,0,0,.02.193,0.755,0.755,0,0,0,.733.57,1.077,1.077,0,0,0,.007-2.1m5.954-.08a0.8,0.8,0,0,0-.76.789h1.439a0.7,0.7,0,0,0-.679-0.789m5.557,0.032a1.156,1.156,0,1,0,.793,1.089,0.943,0.943,0,0,0-.793-1.089m-15.917,1.739a0.432,0.432,0,0,0,.47.465,0.679,0.679,0,0,0,.653-0.445,0.556,0.556,0,0,0,.02-0.18V66.3c-0.585-.007-1.143.112-1.143,0.6m32.169-1.772a0.8,0.8,0,0,0-.759.789h1.438a0.7,0.7,0,0,0-.679-0.789m4.463,19.806H543.688A3.669,3.669,0,0,1,540,81.3V61.554a3.671,3.671,0,0,1,3.691-3.643h69.621A3.672,3.672,0,0,1,617,61.554V81.3a3.67,3.67,0,0,1-3.692,3.639M543.688,58.854a2.721,2.721,0,0,0-2.735,2.7V81.3a2.719,2.719,0,0,0,2.735,2.7h69.621a2.719,2.719,0,0,0,2.736-2.7V61.554a2.722,2.722,0,0,0-2.736-2.7H543.688Z" transform="translate(-540 -57.906)"/>
</svg>
