<svg xmlns="http://www.w3.org/2000/svg" width="60" height="46" viewBox="0 0 60 46">
  <defs>
    <style>
      .cls-1 {
        fill-rule: evenodd;
      }
    </style>
  </defs>
  <path id="Binocl" class="cls-1" d="M768.006,428.744c0-.013,0-0.025,0-0.037,0-.413-0.022-0.822-0.064-1.224a0.366,0.366,0,0,1-.056-0.01,9.527,9.527,0,0,0-1.025-3.634h0a0.3,0.3,0,0,0,.01-0.125l-9.616-22.921c-0.008-.019,0-0.037-0.011-0.055A8.914,8.914,0,0,0,740,403.863a3.034,3.034,0,0,0,.022.4c0.007,0.07.018,0.169,0.03,0.392,0,0.056,0-.027.012,0.03l0.226,1.536h-4.574l0.226-1.536a0.467,0.467,0,0,0,.011-0.1c0.012-.224.022-0.288,0.03-0.359a2.98,2.98,0,0,0,.02-0.387,8.92,8.92,0,0,0-17.25-3.115c-0.009.019-.017,0.039-0.026,0.059l-9.658,22.922a0.406,0.406,0,0,0-.059.125v0a11.755,11.755,0,0,0-1.02,4.642c0,0.011,0-.193,0-0.193H708a12.225,12.225,0,0,0,11.052,12.421,12.465,12.465,0,0,0,1.257.178c0.4,0,.792.035,1.181,0,0.193-.018.38-0.023,0.57-0.051s0.373-.035.557-0.07c0.252-.048.5-0.1,0.746-0.167,0.108-.028.218-0.049,0.325-0.08,0.288-.082.569-0.175,0.848-0.278,0.055-.02.111-0.038,0.167-0.06q0.468-.178.917-0.394l0.038-.018a12.3,12.3,0,0,0,6.591-8.1c0-.018.009-0.035,0.013-0.052,0.082-.337.148-0.68,0.2-1.027,0-.019.008-0.038,0.011-0.057l0-.023a0.879,0.879,0,0,0,.015-0.087l0.038-.277c0.007-.061.018-0.259,0.024-0.321l1.427-10.727h8.04l1.427,10.727c0.006,0.062.017,0.19,0.024,0.251l0.038,0.312a0.868,0.868,0,0,0,.015.1l0,0.033c0,0.02.009,0.043,0.012,0.063,0.053,0.346.118,0.69,0.2,1.026,0,0.018.01,0.038,0.015,0.057a12.3,12.3,0,0,0,6.592,8.1l0.035,0.017q0.45,0.216.919,0.4c0.055,0.021.11,0.04,0.165,0.06,0.279,0.1.561,0.2,0.85,0.28,0.106,0.031.215,0.055,0.323,0.083,0.247,0.063.494,0.126,0.747,0.174,0.184,0.035.371,0.058,0.556,0.085s0.378,0.061.571,0.079c0.389,0.038.783,0.06,1.181,0.06a12.3,12.3,0,0,0,12.307-12.257h0ZM748.929,397.46a6.491,6.491,0,0,1,6.056,4.224,1.265,1.265,0,0,0,.06.137l6.89,16.375a12.291,12.291,0,0,0-16.968,4.566l-2.45-18.184c-0.018-.328-0.032-0.466-0.042-0.562a1.173,1.173,0,0,1-.007-0.153A6.439,6.439,0,0,1,748.929,397.46Zm-27.965,4.366a1.2,1.2,0,0,0,.063-0.142,6.458,6.458,0,0,1,12.517,2.179,1.173,1.173,0,0,1-.007.153c-0.01.1-.024,0.234-0.042,0.562l-2.45,18.184a12.291,12.291,0,0,0-16.968-4.566Zm-5.452,35.538a9.911,9.911,0,0,1-5.268-8.62v-0.012a9.982,9.982,0,0,1,.166-1.015c0.006-.053.074-0.1,0.08-0.156,0.036-.29.107-0.58,0.169-0.866,0.007-.034.032-0.066,0.04-0.1,0.069-.3.157-0.605,0.256-0.9,0.007-.022.02-0.044,0.028-0.066,0.1-.3.221-0.6,0.354-0.894a9.848,9.848,0,0,1,18.822,4.012c0,0.322-.017.64-0.048,0.954l-0.034.254c-0.007.053-.017,0.1-0.024,0.156,0,0.013,0,.025-0.007.037a9.839,9.839,0,0,1-5.454,7.416l-0.016.008c-0.243.118-.493,0.225-0.747,0.323l-0.122.044c-0.226.084-.456,0.161-0.69,0.229-0.083.023-.167,0.042-0.251,0.064-0.2.052-.4,0.1-0.606,0.141-0.144.028-.291,0.046-0.437,0.067s-0.308.049-.464,0.065c-0.312.029-.682,0.047-1,0.047A10.04,10.04,0,0,1,715.512,437.364Zm18.8-20.72,1.073-7.966h5.234l1.073,7.966h-7.38Zm21.383,21.9c-0.319,0-.634-0.018-0.946-0.047-0.156-.016-0.31-0.042-0.464-0.065s-0.293-.039-0.436-0.067c-0.206-.039-0.408-0.089-0.608-0.141-0.084-.022-0.168-0.041-0.25-0.064-0.234-.068-0.465-0.145-0.692-0.229l-0.119-.043c-0.255-.1-0.506-0.206-0.751-0.325l-0.011-.006a9.838,9.838,0,0,1-5.456-7.417c0-.013,0-0.026-0.007-0.039-0.008-.051-0.018-0.1-0.024-0.154L745.9,429.7c-0.031-.314-0.049-0.632-0.049-0.954a9.848,9.848,0,0,1,18.822-4.011c0.132,0.292.248,0.589,0.35,0.888,0.008,0.024.018,0.048,0.026,0.072,0.1,0.294.178,0.593,0.247,0.893,0.008,0.037.02,0.073,0.028,0.11,0.062,0.284.1,0.571,0.14,0.859,0.007,0.054.062,0.107,0.068,0.162a9.819,9.819,0,0,1,.1,1.015v0.012a9.847,9.847,0,0,1-5.2,8.62A9.98,9.98,0,0,1,755.7,438.549Zm-34.462-15.116a1.229,1.229,0,0,0-1.231-1.225,6.5,6.5,0,0,0-1.534.182,6.423,6.423,0,0,0-4.928,6.252,1.231,1.231,0,0,0,2.462,0,3.974,3.974,0,0,1,3.049-3.87,4.024,4.024,0,0,1,.951-0.113A1.229,1.229,0,0,0,721.237,423.433Zm34.462-1.225a6.5,6.5,0,0,0-1.534.182,6.422,6.422,0,0,0-4.928,6.252,1.231,1.231,0,0,0,2.462,0,3.974,3.974,0,0,1,3.049-3.87,4.024,4.024,0,0,1,.951-0.113A1.226,1.226,0,1,0,755.7,422.208Z" transform="translate(-708 -395)"/>
</svg>
