<svg xmlns="http://www.w3.org/2000/svg" width="21" height="22.969" viewBox="0 0 21 22.969">
  <defs>
    <style>
      .cls-1 {
        fill-rule: evenodd;
      }
    </style>
  </defs>
  <path id="Bouqet" class="cls-1" d="M197.992,225.341a0.387,0.387,0,0,0-.444-0.318s-0.376.07-.992,0.176a3.769,3.769,0,0,0-.82-1.977,0.39,0.39,0,0,0-.342-0.141,0.328,0.328,0,0,0-.307.212l-0.1.176a6.279,6.279,0,0,0-1.128-2.295,0.431,0.431,0,0,0-.41-0.141,6.2,6.2,0,0,0-2.563,1.624,3.939,3.939,0,0,0-.889-1.024,0.307,0.307,0,0,0-.342-0.035,0.419,0.419,0,0,0-.239.247l-0.069.177a6.221,6.221,0,0,0-1.606-1.942,0.425,0.425,0,0,0-.41-0.035,6,6,0,0,0-1.88,1.836v-0.036a0.419,0.419,0,0,0-.239-0.247,0.4,0.4,0,0,0-.342.035,3.472,3.472,0,0,0-.889.989A6.187,6.187,0,0,0,181.449,221a0.385,0.385,0,0,0-.41.141,6.279,6.279,0,0,0-1.128,2.295l-0.1-.176a0.5,0.5,0,0,0-.307-0.212,0.43,0.43,0,0,0-.342.141,3.764,3.764,0,0,0-.82,1.977c-0.547-.106-0.855-0.176-0.855-0.176a0.441,0.441,0,0,0-.478.317v0.142h0v0.035a0.389,0.389,0,0,0,.068.282l6.426,9.71-3.316,6.955h0a0.071,0.071,0,0,1-.034.071c-0.034.035,0,.035,0,0.071h0v0.141c0,0.035.034,0.035,0.034,0.07s0.034,0.036.034,0.071c0.035,0.035.035,0.035,0.069,0.071l0.034,0.035h0.034a0.2,0.2,0,0,0,.137.035h0a2.53,2.53,0,0,0,2.051-.847,1.579,1.579,0,0,1,1.3-.565,2.143,2.143,0,0,1,1.606.635,2.836,2.836,0,0,0,1.982.777,2.53,2.53,0,0,0,2.051-.847,1.579,1.579,0,0,1,1.3-.565,2.143,2.143,0,0,1,1.606.635,2.839,2.839,0,0,0,1.983.777h0a0.164,0.164,0,0,0,.137-0.035h0l0.034-.035a0.135,0.135,0,0,0,.068-0.071,0.071,0.071,0,0,0,.034-0.071c0-.035.034-0.035,0.034-0.07a0.13,0.13,0,0,1,.035-0.106v-0.071h0v-0.07c0-.036,0-0.071-0.035-0.071h0l-3.11-7.132,6.221-9.674h0v-0.036h0C197.992,225.517,198.026,225.411,197.992,225.341Zm-2.769-.636,0.274-.459a2.76,2.76,0,0,1,.307,1.059c-0.307.036-.649,0.106-0.991,0.142A8.161,8.161,0,0,1,195.223,224.705Zm-3.9-1.271a5.022,5.022,0,0,1,2.119-1.589,5.6,5.6,0,0,1,.957,2.648l-0.581,1.059c-0.82.106-1.743,0.212-2.632,0.318a2.936,2.936,0,0,0,.342-1.235A4.415,4.415,0,0,0,191.327,223.434Zm-1.3-.741a3.081,3.081,0,0,1,.718,1.977,2.661,2.661,0,0,1-.513,1.306l-1.265.106Zm-2.5-1.8a5.366,5.366,0,0,1,1.5,2.3l-0.889,2.895h-1.333l-0.991-3.178A5.07,5.07,0,0,1,187.533,220.892Zm-2.6,1.8,1.06,3.389c-0.41,0-.82-0.035-1.231-0.071a2.762,2.762,0,0,1-.546-1.376A2.882,2.882,0,0,1,184.935,222.693Zm-3.418-.812a5.159,5.159,0,0,1,2.119,1.553,3.474,3.474,0,0,0-.2,1.236,2.707,2.707,0,0,0,.376,1.271c-0.922-.071-1.811-0.212-2.6-0.318l-0.616-1.13A5.276,5.276,0,0,1,181.517,221.881Zm-2.016,2.365,0.273,0.459c0.137,0.247.308,0.53,0.444,0.777-0.375-.071-0.717-0.106-1.025-0.177A2.742,2.742,0,0,1,179.5,224.246Zm14.321,17.866a2.067,2.067,0,0,1-.82-0.53,2.91,2.91,0,0,0-2.085-.812,2.361,2.361,0,0,0-1.846.777,1.756,1.756,0,0,1-1.5.635,2.049,2.049,0,0,1-1.47-.6,2.906,2.906,0,0,0-2.085-.812,2.36,2.36,0,0,0-1.845.777,1.911,1.911,0,0,1-.855.529l3.008-6.32a21.431,21.431,0,0,0,3.418.318,25.386,25.386,0,0,0,3.384-.318Zm-2.837-7.1c-0.342.035-.923,0.141-1.572,0.212l1.3-4.273a0.372,0.372,0,0,0-.24-0.494,0.355,0.355,0,0,0-.478.247l-1.4,4.59a7.051,7.051,0,0,1-.854.036c-0.41,0-.854-0.036-1.265-0.071l-1.4-4.555a0.367,0.367,0,0,0-.478-0.247,0.385,0.385,0,0,0-.24.494l1.3,4.237a10.383,10.383,0,0,1-1.367-.212l-5.947-9a51.843,51.843,0,0,0,9.16.989,66.966,66.966,0,0,0,9.4-.989Z" transform="translate(-177 -220.031)"/>
</svg>
