<svg xmlns="http://www.w3.org/2000/svg" width="19.937" height="21" viewBox="0 0 19.937 21">
  <defs>
    <style>
      .cls-1 {
        fill-rule: evenodd;
      }
    </style>
  </defs>
  <path id="Calend" class="cls-1" d="M691.141,61.35a1.494,1.494,0,0,1,1.5,1.48V77.5a1.494,1.494,0,0,1-1.5,1.481H676.235a1.494,1.494,0,0,1-1.5-1.481V62.831a1.494,1.494,0,0,1,1.5-1.48h14.906m0-1.005H676.235a2.506,2.506,0,0,0-2.526,2.486V77.5a2.506,2.506,0,0,0,2.526,2.486h14.906a2.506,2.506,0,0,0,2.526-2.486V62.831a2.506,2.506,0,0,0-2.526-2.486h0ZM680.113,62.6a0.506,0.506,0,0,1-.51-0.5V59.5a0.511,0.511,0,0,1,1.021,0v2.6A0.506,0.506,0,0,1,680.113,62.6Zm7.15,0a0.507,0.507,0,0,1-.511-0.5V59.5a0.511,0.511,0,0,1,1.022,0v2.6A0.507,0.507,0,0,1,687.263,62.6Zm6,2.764h-19.15V64.359h19.15v1.005ZM679.05,69.176l0.021,1.927-1.979.021-0.022-1.948h1.98m0.021-1.005h-2a0.992,0.992,0,0,0-1,.984v1.969a0.992,0.992,0,0,0,1,.984h2a0.992,0.992,0,0,0,1-.984V69.155a0.992,0.992,0,0,0-1-.984h0Zm5.6,1.005,0.021,1.927-1.979.021-0.021-1.948h1.979m0.021-1.005h-2a0.992,0.992,0,0,0-1,.984v1.969a0.992,0.992,0,0,0,1,.984h2a0.992,0.992,0,0,0,1-.984V69.155a0.992,0.992,0,0,0-1-.984h0Zm5.6,1.005,0.021,1.927-1.979.021-0.022-1.948h1.98m0.021-1.005h-2a0.992,0.992,0,0,0-1,.984v1.969a0.992,0.992,0,0,0,1,.984h2a0.992,0.992,0,0,0,1-.984V69.155a0.992,0.992,0,0,0-1-.984h0ZM679.05,74.2l0.021,1.927-1.979.021L677.07,74.2h1.98m0.021-1.005h-2a0.992,0.992,0,0,0-1,.984V76.15a0.992,0.992,0,0,0,1,.984h2a0.992,0.992,0,0,0,1-.984V74.181a0.992,0.992,0,0,0-1-.984h0Zm5.6,1.005,0.021,1.927-1.979.021L682.688,74.2h1.979m0.021-1.005h-2a0.992,0.992,0,0,0-1,.984V76.15a0.992,0.992,0,0,0,1,.984h2a0.992,0.992,0,0,0,1-.984V74.181a0.992,0.992,0,0,0-1-.984h0Zm5.6,1.005,0.021,1.927-1.979.021L688.305,74.2h1.98m0.021-1.005h-2a0.992,0.992,0,0,0-1,.984V76.15a0.992,0.992,0,0,0,1,.984h2a0.992,0.992,0,0,0,1-.984V74.181a0.992,0.992,0,0,0-1-.984h0Z" transform="translate(-673.719 -59)"/>
</svg>
