<svg xmlns="http://www.w3.org/2000/svg" width="25" height="19" viewBox="0 0 25 19">
  <defs>
    <style>
      .cls-1 {
        fill-rule: evenodd;
      }
    </style>
  </defs>
  <path id="Car" class="cls-1" d="M148.628,231.972l-2.9-1.056-0.053-2.533a2.758,2.758,0,0,0-.9-2.058,2.832,2.832,0,0,0-2-.791H142.14A3.76,3.76,0,0,0,138.6,223h-9.864A3.761,3.761,0,0,0,125,226.748v12.611a0.946,0.946,0,0,0,.95.95h3.9A2.266,2.266,0,0,0,132.065,242a2.325,2.325,0,0,0,2.215-1.689H142.4A2.266,2.266,0,0,0,144.619,242a2.324,2.324,0,0,0,2.215-1.689h1.214A1.947,1.947,0,0,0,150,238.357v-4.38A2.016,2.016,0,0,0,148.628,231.972ZM126.21,226.7a2.532,2.532,0,0,1,2.531-2.533H138.6a2.533,2.533,0,0,1,2.532,2.533v5.646a2.533,2.533,0,0,1-2.532,2.533H126.21V226.7Zm5.855,14.036a1.114,1.114,0,0,1-1.108-1.108,1.108,1.108,0,1,1,2.215,0A1.113,1.113,0,0,1,132.065,240.731Zm12.554,0a1.114,1.114,0,0,1-1.108-1.108,1.108,1.108,0,0,1,2.216,0A1.114,1.114,0,0,1,144.619,240.731Zm4.167-2.427a0.722,0.722,0,0,1-.738.739h-1.214a2.264,2.264,0,0,0-2.215-1.689,2.327,2.327,0,0,0-2.216,1.689H134.28a2.264,2.264,0,0,0-2.215-1.689,2.327,2.327,0,0,0-2.216,1.689H126.21v-2.955H138.6a3.761,3.761,0,0,0,3.746-3.747V226.7h0.474a1.637,1.637,0,0,1,1.161.475,1.717,1.717,0,0,1,.527,1.213l0.053,3.378,3.64,1.319a0.812,0.812,0,0,1,.527.791V238.3h0.053Z" transform="translate(-125 -223)"/>
</svg>
