<svg xmlns="http://www.w3.org/2000/svg" width="24" height="19" viewBox="0 0 24 19">
  <defs>
    <style>
      .cls-1 {
        fill-rule: evenodd;
      }
    </style>
  </defs>
  <path id="Cart" class="cls-1" d="M845.833,75.806h-11.58a0.53,0.53,0,0,1-.5-0.368l-3.99-12.378h-2.23a0.531,0.531,0,0,1,0-1.062h2.615a0.53,0.53,0,0,1,.5.368l0.452,1.4h19.369a0.531,0.531,0,0,1,.507.683l-2.853,9.612A2.39,2.39,0,0,1,845.833,75.806Zm-11.195-1.062h11.195a1.339,1.339,0,0,0,1.276-.984l2.65-8.929H831.442ZM836.017,81a2.076,2.076,0,1,1,2.068-2.076A2.074,2.074,0,0,1,836.017,81Zm0-3.089a1.013,1.013,0,1,0,1.009,1.013A1.012,1.012,0,0,0,836.017,77.914ZM845.093,81a2.076,2.076,0,1,1,2.067-2.076A2.074,2.074,0,0,1,845.093,81Zm0-3.089a1.013,1.013,0,1,0,1.009,1.013A1.012,1.012,0,0,0,845.093,77.914Zm-4.334-5.693a0.53,0.53,0,0,1-.529-0.531V67.581a0.53,0.53,0,1,1,1.059,0v4.109A0.53,0.53,0,0,1,840.759,72.221Zm-3.567,0a0.53,0.53,0,0,1-.529-0.531V67.581a0.53,0.53,0,1,1,1.059,0v4.109A0.53,0.53,0,0,1,837.192,72.221Zm7.135,0a0.53,0.53,0,0,1-.53-0.531V67.581a0.53,0.53,0,1,1,1.059,0v4.109A0.53,0.53,0,0,1,844.327,72.221Z" transform="translate(-827 -62)"/>
</svg>
