<svg xmlns="http://www.w3.org/2000/svg" width="57" height="41" viewBox="0 0 57 41">
  <defs>
    <style>
      .cls-1 {
        fill-rule: evenodd;
      }
    </style>
  </defs>
  <path id="Catalog" class="cls-1" d="M672.783,402.221c-0.372-.286-1.9-1.221-6.727-1.221a56.218,56.218,0,0,0-6.926.5c-9.627,1.213-12.649,3.528-13.338,4.188-0.689-.659-3.718-2.975-13.346-4.188a56.682,56.682,0,0,0-6.964-.5c-4.961,0-6.676,1.009-6.934,1.2A3.935,3.935,0,0,0,617,405.138v31.211a2.166,2.166,0,0,0,2.179,2.165,2.89,2.89,0,0,0,.692-0.087,29.185,29.185,0,0,1,6.741-.613c1.612,0,3.338.081,5.1,0.241,9.278,0.844,12.337,3.27,12.358,3.287a2.893,2.893,0,0,0,3.464.157c0.028-.019,2.93-1.945,12.475-3.454a31.429,31.429,0,0,1,11.618.4,2.371,2.371,0,0,0,.6.08,1.7,1.7,0,0,0,1.425-.733,2.237,2.237,0,0,0,.348-1.444V405.138A3.646,3.646,0,0,0,672.783,402.221Zm-40.948,33.4c-1.837-.167-3.683-0.252-5.371-0.252a37.838,37.838,0,0,0-6.986.6V405.138a1.581,1.581,0,0,1,.506-0.94c0.012-.007,1.33-0.749,5.442-0.749a54.525,54.525,0,0,1,6.685.476c9.593,1.208,11.932,3.448,11.935,3.448a1.213,1.213,0,0,0,.746.524h-0.531v30.825C643.022,437.784,638.848,436.255,631.835,435.617Zm39.92,0.342a33.689,33.689,0,0,0-7.048-.723,34.257,34.257,0,0,0-5.208.391A51.119,51.119,0,0,0,646.739,439V407.9h0.086a1.121,1.121,0,0,0,.7-0.5c0.022-.022,2.34-2.288,11.946-3.5a50.264,50.264,0,0,1,6.391-.464c4.046,0,5.038.73,5.038,0.73v0a0.758,0.758,0,0,1,.6.966Z" transform="translate(-617 -401)"/>
</svg>
