<svg xmlns="http://www.w3.org/2000/svg" width="63.969" height="53" viewBox="0 0 63.969 53">
  <defs>
    <style>
      .cls-1 {
        fill-rule: evenodd;
      }
    </style>
  </defs>
  <path id="Cherry" class="cls-1" d="M422.7,406.115c-0.231-.278-5.761-6.845-13.9-8.26a19.557,19.557,0,0,0-3.35-.283,27.125,27.125,0,0,0-11.856,3.007,16.852,16.852,0,0,1-.344-3.322,1.431,1.431,0,0,0-2.843,0c0,4.486-4.576,8.721-9.42,13.2-5.171,4.786-10.492,9.724-11.313,15.854a7.289,7.289,0,0,0-3.883-.882c-2.821,0-6.793,3.092-6.793,9.967,0,8.014,6.288,13.6,11.932,13.6,5.531,0,11.695-5.618,11.695-13.68,0-9.456-6.311-9.729-7.03-9.729a6.806,6.806,0,0,0-3.372.735c0.876-5.12,5.739-9.636,10.472-14.015,3.523-3.261,6.908-6.4,8.765-9.8a50.409,50.409,0,0,0,3.986,9.442c2.261,4.491,4.587,9.125,4.949,14.539l-0.116-.063a7.275,7.275,0,0,0-4.091-1c-2.821,0-6.792,3.092-6.792,9.967,0,8.014,6.288,13.6,11.932,13.6,5.531,0,11.695-5.618,11.695-13.68,0-9.456-6.311-9.729-7.03-9.729a6.975,6.975,0,0,0-3.1.6c-0.416-5.845-2.843-10.683-5.2-15.373-0.939-1.865-1.854-3.687-2.609-5.516a24.193,24.193,0,0,0,11.42,5.788,19.554,19.554,0,0,0,3.349.283,27.118,27.118,0,0,0,12.519-3.369A1.261,1.261,0,0,0,422.7,406.115Zm-47.105,22c0.753,0,4.514.347,4.514,7.21,0,6.916-5.346,11.161-9.179,11.161-5.834,0-9.416-6.454-9.416-11.081,0-5.264,2.785-7.449,4.277-7.449a4.89,4.89,0,0,1,2.861.676,4.265,4.265,0,0,0,2.278.673,4.364,4.364,0,0,0,2.22-.619A4.4,4.4,0,0,1,375.6,428.11Zm30.4,0c0.753,0,4.514.347,4.514,7.21,0,6.916-5.346,11.161-9.179,11.161-5.834,0-9.416-6.454-9.416-11.081,0-5.264,2.785-7.449,4.276-7.449a4.891,4.891,0,0,1,2.862.676,4.265,4.265,0,0,0,2.278.673,4.364,4.364,0,0,0,2.22-.619A4.4,4.4,0,0,1,406,428.11Zm3.86-19.255a17.084,17.084,0,0,1-2.919-.246c-5.25-.912-9.4-4.384-11.288-6.226a24.371,24.371,0,0,1,9.8-2.292,17.1,17.1,0,0,1,2.92.246c5.249,0.912,9.4,4.383,11.288,6.225A24.379,24.379,0,0,1,409.855,408.855Z" transform="translate(-359 -396)"/>
</svg>
