<svg xmlns="http://www.w3.org/2000/svg" width="52" height="52" viewBox="0 0 52 52">
  <defs>
    <style>
      .cls-1 {
        fill-rule: evenodd;
      }
    </style>
  </defs>
  <path id="Clock" class="cls-1" d="M111,396a26,26,0,1,0,26,26A26.03,26.03,0,0,0,111,396Zm0,49.463A23.463,23.463,0,1,1,134.463,422,23.49,23.49,0,0,1,111,445.463Zm-0.072-36.78a3.488,3.488,0,1,0-3.488-3.488A3.492,3.492,0,0,0,110.928,408.683Zm0-5.073a1.585,1.585,0,1,1-1.586,1.585A1.587,1.587,0,0,1,110.928,403.61Zm0,32.341a3.488,3.488,0,1,0,3.488,3.488A3.492,3.492,0,0,0,110.928,435.951Zm0,5.073a1.585,1.585,0,1,1,1.585-1.585A1.587,1.587,0,0,1,110.928,441.024ZM93.806,418.829a3.488,3.488,0,1,0,3.488,3.488A3.492,3.492,0,0,0,93.806,418.829Zm0,5.073a1.585,1.585,0,1,1,1.585-1.585A1.586,1.586,0,0,1,93.806,423.9Zm34.244-5.073a3.488,3.488,0,1,0,3.488,3.488A3.492,3.492,0,0,0,128.05,418.829Zm0,5.073a1.585,1.585,0,1,1,1.585-1.585A1.587,1.587,0,0,1,128.05,423.9Zm-6.714-14.911-10.408,11.15L105.2,414a1.268,1.268,0,0,0-1.854,1.73L110,422.865a1.268,1.268,0,0,0,1.854,0l11.335-12.144A1.268,1.268,0,1,0,121.336,408.991Z" transform="translate(-85 -396)"/>
</svg>
