<svg xmlns="http://www.w3.org/2000/svg" width="17.031" height="21" viewBox="0 0 17.031 21">
  <defs>
    <style>
      .cls-1 {
        fill-rule: evenodd;
      }
    </style>
  </defs>
  <path id="Delet" class="cls-1" d="M776.618,68.605V80.256A1.74,1.74,0,0,1,774.888,82h-8.875a1.74,1.74,0,0,1-1.731-1.745V68.605h12.336m0.991-1H763.291V80.256A2.734,2.734,0,0,0,766.013,83h8.875a2.733,2.733,0,0,0,2.721-2.744V67.606h0ZM772.273,63a0.89,0.89,0,0,1,.44.907v0.7h-4.526v-0.7A0.891,0.891,0,0,1,768.628,63h3.645m0-1h-3.645a1.721,1.721,0,0,0-1.432,1.907v1.7H773.7v-1.7A1.721,1.721,0,0,0,772.273,62h0Zm5.282,3.73a0.415,0.415,0,0,1,.413.417v1a0.415,0.415,0,0,1-.413.417H763.346a0.415,0.415,0,0,1-.413-0.417v-1a0.415,0.415,0,0,1,.413-0.417h14.209m0-1H763.346a1.41,1.41,0,0,0-1.4,1.416v1a1.41,1.41,0,0,0,1.4,1.416h14.209a1.41,1.41,0,0,0,1.4-1.416v-1a1.41,1.41,0,0,0-1.4-1.416h0Zm-10.573,15.7a0.5,0.5,0,0,1-.5-0.5V71.52a0.5,0.5,0,1,1,.992,0v8.412A0.5,0.5,0,0,1,766.982,80.432Zm3.469,0a0.5,0.5,0,0,1-.5-0.5V71.52a0.5,0.5,0,1,1,.991,0v8.412A0.5,0.5,0,0,1,770.451,80.432Zm3.469,0a0.5,0.5,0,0,1-.5-0.5V71.52a0.5,0.5,0,1,1,.991,0v8.412A0.5,0.5,0,0,1,773.92,80.432Z" transform="translate(-761.938 -62)"/>
</svg>
