<svg xmlns="http://www.w3.org/2000/svg" width="19" height="13" viewBox="0 0 19 13">
  <defs>
    <style>
      .cls-1 {
        fill-rule: evenodd;
      }
    </style>
  </defs>
  <path id="e-mail" class="cls-1" d="M1858,220.2c0.03-.1.07-0.2,0.11-0.329,2.27,2.152,4.53,4.287,6.8,6.434-2.24,1.681-4.47,3.349-6.72,5.03-0.07-.183-0.13-0.341-0.19-0.5V220.2Zm0.93-1.133a5.8,5.8,0,0,1,.6-0.059q4.305-.006,8.63,0,3.66,0,7.34,0a5.321,5.321,0,0,1,.56.06,0.089,0.089,0,0,1,.01.05c-0.09.086-.17,0.172-0.26,0.257-0.81.758-1.61,1.515-2.41,2.273-0.74.706-1.49,1.414-2.24,2.12-0.77.737-1.55,1.481-2.34,2.208a1.876,1.876,0,0,1-2.4.184,10.285,10.285,0,0,1-.97-0.869c-1.24-1.165-2.47-2.333-3.71-3.5l-2.7-2.557c-0.04-.037-0.07-0.078-0.11-0.118v-0.048Zm-0.06,12.8c0.3-.227.6-0.453,0.91-0.68,1.02-.767,2.04-1.536,3.07-2.3,0.86-.645,1.72-1.286,2.58-1.934a0.138,0.138,0,0,1,.2,0,2.99,2.99,0,0,0,3.71.026,0.166,0.166,0,0,1,.25-0.01c0.81,0.611,1.62,1.215,2.43,1.82q1.05,0.786,2.1,1.569,0.99,0.741,1.98,1.485a0.694,0.694,0,0,0,.06.078,6.169,6.169,0,0,1-.67.074q-6.57.006-13.13,0c-0.96,0-1.92,0-2.87,0a5.242,5.242,0,0,1-.61-0.071A0.115,0.115,0,0,1,1858.87,231.864Zm18.05-11.967a2.935,2.935,0,0,1,.08.5v10.208a1.458,1.458,0,0,1-.21.714c-2.23-1.673-4.46-3.341-6.71-5.022q3.4-3.217,6.79-6.412C1876.88,219.892,1876.9,219.894,1876.92,219.9Z" transform="translate(-1858 -219)"/>
</svg>
