<svg xmlns="http://www.w3.org/2000/svg" width="17.781" height="18" viewBox="0 0 17.781 18">
  <defs>
    <style>
      .cls-1 {
        fill-rule: evenodd;
      }
    </style>
  </defs>
  <path id="Adit" class="cls-1" d="M737.1,63.957a0.309,0.309,0,0,1,.221.093l2.244,2.269a0.319,0.319,0,0,1,0,.448l-9.3,9.4-2.686-2.716,9.3-9.4a0.31,0.31,0,0,1,.221-0.093m0-.992a1.284,1.284,0,0,0-.915.383l-9.428,9.535a0.807,0.807,0,0,0,0,1.134L729.709,77a0.787,0.787,0,0,0,1.122,0l9.428-9.535a1.319,1.319,0,0,0,0-1.85l-2.243-2.269a1.284,1.284,0,0,0-.915-0.383h0ZM727.051,74.26l2.431,2.459-4.958,2.556,2.527-5.014m-0.124-1.348a0.492,0.492,0,0,0-.435.274l-3.6,7.148a0.434,0.434,0,0,0,.37.648,0.47,0.47,0,0,0,.217-0.055l7.068-3.643a0.474,0.474,0,0,0,.149-0.744l-3.466-3.5a0.417,0.417,0,0,0-.3-0.124h0Zm10.533-3.2-3.337-3.375,0.693-.7,3.338,3.375Z" transform="translate(-722.844 -62.969)"/>
</svg>
