<?xml version="1.0" encoding="utf-8"?>
<!-- Generator: Adobe Illustrator 20.0.0, SVG Export Plug-In . SVG Version: 6.00 Build 0)  -->
<svg version="1.1" id="Layer_1" xmlns="http://www.w3.org/2000/svg" xmlns:xlink="http://www.w3.org/1999/xlink" x="0px" y="0px"
	 viewBox="0 0 960 560" style="enable-background:new 0 0 960 560;" xml:space="preserve">
<style type="text/css">
	.st0{fill:#0A582B;}
</style>
<g>
	<path class="st0" d="M573.7,329.9c-0.7-0.5-1.7-0.3-2.2,0.4l-9.1,13.8l-6.4-4.7c-0.7-0.5-1.7-0.4-2.2,0.3c-0.5,0.7-0.4,1.7,0.3,2.2
		l7.7,5.7c0.3,0.2,0.6,0.3,0.9,0.3c0.1,0,0.2,0,0.3,0c0.4-0.1,0.8-0.3,1-0.7l10-15.2C574.6,331.4,574.4,330.4,573.7,329.9z"/>
	<path class="st0" d="M564.3,315.7c-1.9,0-4,0.3-6.1,0.9l6.7-12.4l2.9-5.2c1-1.9,1.2-4,0.6-6c-0.6-2-2-3.7-3.8-4.7
		c-3.8-2.1-8.7-0.7-10.7,3.1l-2.9,5.2c0,0,0,0,0,0c0,0,0,0,0,0l-23.7,44.1c-0.1,0.1-0.1,0.3-0.2,0.4c0,0.1,0,0.2-0.1,0.3l-2,14.4
		c0,0,0,0.1,0,0.1c-0.1,1.4,0.6,2.6,1.8,3.1c0.5,0.2,0.9,0.3,1.4,0.3c0.7,0,1.5-0.3,2.1-0.8c0,0,0.1-0.1,0.1-0.1l10.2-9.6
		c0.2-0.2,0.4-0.3,0.6-0.7l1.2-2.2c3.1,9.3,11.9,15.9,21.9,15.9c12.7,0,23.1-10.3,23.1-23.1S577,315.7,564.3,315.7z M556.5,292.9
		c1.3-2.4,4.3-3.3,6.7-2c1.2,0.6,2,1.7,2.4,2.9s0.2,2.6-0.4,3.7l-2.2,3.9l-1.4-0.8l-7.3-4L556.5,292.9z M528.4,356.3
		c-0.1,0.1-0.2,0.1-0.3,0.1c-0.1,0-0.1-0.2-0.1-0.3l1.7-12.2l7.6,3.9L528.4,356.3z M539.3,345.4l-8.8-4.5l22.4-41.6l8.7,4.7
		L539.3,345.4z M564.3,358.8c-9.8,0-18.2-7.2-19.8-16.8l11.6-21.5c2.7-1.1,5.7-1.8,8.2-1.8c11.1,0,20.1,9,20.1,20.1
		S575.3,358.8,564.3,358.8z"/>
</g>
</svg>
