<svg xmlns="http://www.w3.org/2000/svg" width="15.875" height="31" viewBox="0 0 15.875 31">
  <defs>
    <style>
      .cls-1 {
        fill-rule: evenodd;
      }
    </style>
  </defs>
  <path id="Flower" class="cls-1" d="M134.367,78a0.769,0.769,0,0,1-.242-0.039,0.749,0.749,0,0,1-.521-0.711V61.462a0.763,0.763,0,0,1,1.526,0V75l3.963-5.182a0.77,0.77,0,0,1,1.068-.149,0.742,0.742,0,0,1,.152,1.049L134.977,77.7A0.768,0.768,0,0,1,134.367,78Zm0-15.789c-4.087,0-7.412-2.688-7.412-5.992V48.388a0.748,0.748,0,0,1,.419-0.669,0.772,0.772,0,0,1,.8.066l2.967,2.155,2.681-2.714A0.773,0.773,0,0,1,134.356,47h0.011a0.768,0.768,0,0,1,.531.212l2.894,2.762,2.746-2.169a0.775,0.775,0,0,1,.808-0.092,0.75,0.75,0,0,1,.433.676v7.831C141.779,59.523,138.454,62.211,134.367,62.211Zm-5.886-12.336v6.344c0,2.477,2.64,4.493,5.886,4.493s5.886-2.016,5.886-4.493V49.953l-2.031,1.6a0.773,0.773,0,0,1-1.009-.046l-2.83-2.7-2.615,2.646a0.773,0.773,0,0,1-1,.081ZM134.367,78a0.765,0.765,0,0,1-.589-0.273l-7.7-9.186a0.741,0.741,0,0,1,.105-1.055,0.771,0.771,0,0,1,1.074.1l7.7,9.186a0.74,0.74,0,0,1-.1,1.055A0.768,0.768,0,0,1,134.367,78Z" transform="translate(-125.906 -47)"/>
</svg>
