<svg xmlns="http://www.w3.org/2000/svg" width="57.969" height="49" viewBox="0 0 57.969 49">
  <defs>
    <style>
      .cls-1 {
        fill-rule: evenodd;
      }
    </style>
  </defs>
  <path id="Heart" class="cls-1" d="M473.982,448a1.264,1.264,0,0,1-.663-0.188c-1.078-.668-26.406-16.518-28.218-32.216a14.454,14.454,0,0,1,4.569-12.318,12.964,12.964,0,0,1,9.841-4.266c5.019,0,10.228,2.535,14.471,7,4.244-4.467,9.453-7,14.471-7a12.958,12.958,0,0,1,9.839,4.266,14.511,14.511,0,0,1,4.6,12.385c-1.83,15.706-27.166,31.486-28.243,32.15A1.26,1.26,0,0,1,473.982,448ZM459.511,401.5a10.475,10.475,0,0,0-7.984,3.45c-0.017.019-.036,0.038-0.054,0.056a11.934,11.934,0,0,0-3.877,10.3c1.521,13.18,22.379,27.348,26.387,29.957,4.013-2.6,24.877-16.718,26.409-29.894,0.455-3.907-.822-7.3-3.9-10.359a0.727,0.727,0,0,1-.054-0.057,10.476,10.476,0,0,0-7.983-3.449c-4.666,0-9.593,2.618-13.516,7.183a1.262,1.262,0,0,1-.955.437h0a1.258,1.258,0,0,1-.954-0.437C469.1,404.122,464.177,401.5,459.511,401.5Z" transform="translate(-445 -399)"/>
</svg>
