<svg xmlns="http://www.w3.org/2000/svg" width="19.97" height="20" viewBox="0 0 19.97 20">
  <defs>
    <style>
      .cls-1 {
        fill-rule: evenodd;
      }
    </style>
  </defs>
  <path id="ICQ" class="cls-1" d="M1839.89,231.228c0.02,0.207.06,0.446,0.07,0.686a3.51,3.51,0,0,1-.17,1.4,2.087,2.087,0,0,1-3.06,1.144,4.945,4.945,0,0,1-.85-0.634,2.06,2.06,0,0,1-.29-0.341,3.306,3.306,0,0,1-4.53,2.272,2.965,2.965,0,0,1-1.92-2.219,3.251,3.251,0,0,1,.75-2.873,8.236,8.236,0,0,1-.93.138,2.924,2.924,0,0,1-1.96-.442,1.9,1.9,0,0,1-.57-2.419,2.842,2.842,0,0,1,.68-0.865c0.12-.1.23-0.2,0.38-0.323-0.13-.036-0.22-0.064-0.32-0.09a2.649,2.649,0,0,1-1.64-4.175,3.68,3.68,0,0,1,3.8-1.584c0.23,0.051.46,0.142,0.72,0.223-0.1-.186-0.21-0.344-0.29-0.511a3.439,3.439,0,0,1-.21-2.558,2.094,2.094,0,0,1,2.51-1.546,2.87,2.87,0,0,1,1.98,1.45c0.11,0.183.21,0.372,0.33,0.576a3.2,3.2,0,0,1,2.51-2.442,3.287,3.287,0,0,1,4.16,3,2.637,2.637,0,0,1-.22,1.236c-0.08.181-.16,0.36-0.26,0.58,0.29-.058.53-0.124,0.78-0.157a3.476,3.476,0,0,1,2.02.2,2.123,2.123,0,0,1,.64,3.469,7.456,7.456,0,0,1-1.04.811,1.934,1.934,0,0,1-.24.132c0.14,0.068.25,0.12,0.36,0.169a3.3,3.3,0,0,1,.6,5.632,2.913,2.913,0,0,1-2.63.469C1840.66,231.532,1840.28,231.366,1839.89,231.228Zm-3.2-7.447c0.05-.053.1-0.1,0.14-0.152l2.25-2.7a2.678,2.678,0,0,0,.7-1.578,1.746,1.746,0,0,0-.84-1.775,2.171,2.171,0,0,0-2.65.084,1.627,1.627,0,0,0-.75,1.447q0.135,2.041.3,4.081a0.233,0.233,0,0,0,.1.168C1836.18,223.5,1836.43,223.633,1836.69,223.781Zm4.68,2.687v-0.012c-1.2.1-2.39,0.2-3.59,0.3a0.184,0.184,0,0,0-.19.156,1.732,1.732,0,0,1-.16.442,0.214,0.214,0,0,0,.07.326c0.93,0.751,1.87,1.5,2.79,2.274a2.469,2.469,0,0,0,.97.541,2.028,2.028,0,0,0,2.55-2.157,2.089,2.089,0,0,0-.44-1.062,1.683,1.683,0,0,0-1.51-.809C1841.7,226.474,1841.53,226.468,1841.37,226.468Zm-7.25,2.459c-0.25-.094-0.48-0.172-0.71-0.275a0.214,0.214,0,0,0-.3.066c-0.71.841-1.42,1.685-2.15,2.508a3.164,3.164,0,0,0-.66,1.3,2.066,2.066,0,0,0,.76,1.929,2.281,2.281,0,0,0,2.66-.144,1.634,1.634,0,0,0,.7-1.429c-0.03-.459-0.02-0.922-0.05-1.381C1834.3,230.636,1834.2,229.778,1834.12,228.927Zm-1.74-4.738c-0.05-.031-0.1-0.071-0.15-0.109-0.74-.525-1.46-1.066-2.21-1.566a3.376,3.376,0,0,0-.97-0.428,2.426,2.426,0,0,0-2.67,1.357,1.512,1.512,0,0,0,.18,1.547,1.485,1.485,0,0,0,1.36.557c1.29-.118,2.59-0.3,3.88-0.466a0.257,0.257,0,0,0,.17-0.1C1832.11,224.73,1832.23,224.47,1832.38,224.189Zm4.33,1.956a1.84,1.84,0,0,0-1.88-1.853,1.875,1.875,0,0,0-1.94,1.828A1.91,1.91,0,0,0,1836.71,226.145Zm0.85-1.092c0.07,0,.14,0,0.21-0.013,1.07-.128,2.15-0.261,3.22-0.386a3.7,3.7,0,0,0,1.67-.612,2.053,2.053,0,0,0,.65-0.705,0.894,0.894,0,0,0-.22-1.122,1.526,1.526,0,0,0-1.03-.34,2.656,2.656,0,0,0-1.73.493c-0.91.692-1.77,1.435-2.66,2.157C1837.42,224.732,1837.42,224.733,1837.56,225.053Zm-6.95-6.125a3.037,3.037,0,0,0,.74,1.917c0.26,0.264.51,0.539,0.76,0.809,0.49,0.52.98,1.037,1.46,1.562,0.16,0.18.3,0.007,0.44-.028a0.274,0.274,0,0,0,.06-0.22c-0.15-.884-0.32-1.764-0.45-2.65a4.433,4.433,0,0,0-.67-1.8,1.967,1.967,0,0,0-1.04-.807,0.845,0.845,0,0,0-1.12.51A6.238,6.238,0,0,0,1830.61,218.928Zm4.87,9.99c0.04,0.223.07,0.437,0.11,0.651a11.842,11.842,0,0,0,.62,2.625,2.3,2.3,0,0,0,1.11,1.259,0.977,0.977,0,0,0,1.35-.551,2.318,2.318,0,0,0-.43-2.307c-0.54-.709-1.2-1.33-1.81-1.985a0.177,0.177,0,0,0-.15-0.05C1836.02,228.671,1835.75,228.793,1835.48,228.918Z" transform="translate(-1825.03 -216)"/>
</svg>
