<svg xmlns="http://www.w3.org/2000/svg" width="18.03" height="18" viewBox="0 0 18.03 18">
  <defs>
    <style>
      .cls-1 {
        fill-rule: evenodd;
      }
    </style>
  </defs>
  <path id="Instagram" class="cls-1" d="M1212.94,540.768a4.731,4.731,0,0,0-4.71-4.715q-4.2-.105-8.39,0a4.82,4.82,0,0,0-4.75,4.749c-0.01.254-.09,0.506-0.09,0.758v6.885c0.09,0.535.11,1.078,0.22,1.605a4.693,4.693,0,0,0,4.58,3.893c2.82,0.071,5.65.081,8.47,0a4.721,4.721,0,0,0,4.67-4.713Q1213.06,545,1212.94,540.768Zm-8.94,7.8a3.594,3.594,0,1,1,3.58-3.594A3.585,3.585,0,0,1,1204,548.566Zm4.86-7.112a1.314,1.314,0,1,1,1.31-1.314A1.314,1.314,0,0,1,1208.86,541.454Z" transform="translate(-1195 -536)"/>
</svg>
