<svg xmlns="http://www.w3.org/2000/svg" width="39.844" height="35.031" viewBox="0 0 39.844 35.031">
  <defs>
    <style>
      .cls-1 {
        fill-rule: evenodd;
      }
    </style>
  </defs>
  <path id="Like" class="cls-1" d="M486.9,83H464.436a1,1,0,0,1-1-.994V64.633a1,1,0,0,1,1-.994,0.833,0.833,0,0,0,.686-0.358l4.377-7.1a4.886,4.886,0,0,0,.715-2.991l-0.078-.922a3.952,3.952,0,0,1,2.873-4.125,4.013,4.013,0,0,1,1.079-.154c0.939,0,2.663.4,3.669,3.065l0.617,1.818a8.908,8.908,0,0,1,.3,4.589l-0.649,3.27a0.152,0.152,0,0,0,.149.183l11.054,0a3.562,3.562,0,0,1,3.479,2.567,3.492,3.492,0,0,1-.6,3.069,3.567,3.567,0,0,1-.785.751l0.011,0.015a3.5,3.5,0,0,1,.6,3.068,3.408,3.408,0,0,1-1.394,1.932l0.017,0.023a3.494,3.494,0,0,1,.6,3.068,3.407,3.407,0,0,1-1.393,1.932l0.018,0.023a3.5,3.5,0,0,1,.6,3.068A3.562,3.562,0,0,1,486.9,83Zm-21.468-1.989H486.9a1.588,1.588,0,0,0,1.553-1.094,1.526,1.526,0,0,0-1.466-1.942,0.994,0.994,0,1,1,0-1.988h0.688a1.587,1.587,0,0,0,1.553-1.092,1.526,1.526,0,0,0-1.464-1.943,0.994,0.994,0,1,1,0-1.988h0.686a1.591,1.591,0,0,0,1.555-1.093,1.527,1.527,0,0,0-1.466-1.941,0.994,0.994,0,1,1,0-1.988h0.775a1.527,1.527,0,0,0,1.465-1.942,1.588,1.588,0,0,0-1.553-1.093l-11.053,0a2.142,2.142,0,0,1-2.106-2.558l0.648-3.269a6.924,6.924,0,0,0-.233-3.566l-0.606-1.787c-0.53-1.4-1.287-1.956-2.329-1.664a1.958,1.958,0,0,0-1.424,2.044l0.078,0.923a6.861,6.861,0,0,1-1,4.2l-4.376,7.1a2.749,2.749,0,0,1-1.389,1.128v15.56Zm-1,1.987h-7.617a3.824,3.824,0,0,1-3.825-3.813V67.451a3.824,3.824,0,0,1,3.825-3.813h7.617a0.994,0.994,0,1,1,0,1.988h-7.617a1.83,1.83,0,0,0-1.83,1.825V79.182a1.829,1.829,0,0,0,1.83,1.824h7.617A0.994,0.994,0,1,1,464.436,82.995Z" transform="translate(-453 -47.969)"/>
</svg>
