<svg xmlns="http://www.w3.org/2000/svg" width="36.031" height="27.969" viewBox="0 0 36.031 27.969">
  <defs>
    <style>
      .cls-1 {
        fill-rule: evenodd;
      }
    </style>
  </defs>
  <path id="List" class="cls-1" d="M335.61,80.931H312.277a0.752,0.752,0,0,1-.156-0.017c-2.363-.515-2.667-0.581-2.59-1.324a0.8,0.8,0,0,1,.784-0.687l0.221,0a2.153,2.153,0,0,0,1.973-.826,5.944,5.944,0,0,0,.477-2.18V53.715a0.753,0.753,0,0,1,.746-0.759h27.51a0.753,0.753,0,0,1,.746.759V74.443A6.441,6.441,0,0,1,335.61,80.931Zm-22.257-1.518H335.61a4.934,4.934,0,0,0,4.885-4.97V54.474H314.477v21.47a7.2,7.2,0,0,1-.733,2.989A3.2,3.2,0,0,1,313.353,79.413Zm11.013,1.518h-12a6.449,6.449,0,0,1-6.386-6.5v-8.95a0.753,0.753,0,0,1,.746-0.759h6.26a0.759,0.759,0,0,1,0,1.518h-5.514v8.191a4.942,4.942,0,0,0,4.894,4.979h12A0.759,0.759,0,0,1,324.366,80.931ZM334.8,61.072H320.077a0.759,0.759,0,0,1,0-1.518H334.8A0.759,0.759,0,0,1,334.8,61.072Zm0,6.63H320.077a0.759,0.759,0,0,1,0-1.518H334.8A0.759,0.759,0,0,1,334.8,67.7Zm0,6.647H320.077a0.759,0.759,0,0,1,0-1.518H334.8A0.759,0.759,0,0,1,334.8,74.349Z" transform="translate(-305.969 -52.969)"/>
</svg>
