<svg xmlns="http://www.w3.org/2000/svg" width="39" height="49" viewBox="0 0 39 49">
  <defs>
    <style>
      .cls-1 {
        fill-rule: evenodd;
      }
    </style>
  </defs>
  <path id="Money" class="cls-1" d="M332.062,419.489c-0.635-.771-1.321-1.521-1.985-2.246-1.756-1.918-3.417-3.733-3.565-5.287a15.241,15.241,0,0,1,1.465-2c1.829-2.268,3.9-4.839,2.125-6.594-1.277-1.26-4.436-3.373-11.246-3.373-5.158,0-8.929,1.123-11.236,3.365-1.794,1.738.276,4.3,2.1,6.566a15.515,15.515,0,0,1,1.476,2.01c-0.193,1.436-1.9,3.156-3.556,4.821-0.871.877-1.772,1.783-2.556,2.735-4.2,5.093-6.185,9.915-6.083,14.74C299.276,447.079,311.247,449,318.358,449c12.821,0,19.427-4.993,19.636-14.842C338.1,429.257,336.156,424.46,332.062,419.489Zm-13.7,27.01c-10.988,0-16.648-4.146-16.82-12.323-0.09-4.208,1.714-8.5,5.515-13.11,0.71-.861,1.569-1.726,2.4-2.562,2.111-2.126,4.106-4.133,4.284-6.5,0.074-.975-0.646-1.916-2.032-3.634-0.7-.866-2.123-2.629-2.215-3.317,2.242-2.112,6.323-2.557,9.366-2.557,5.91,0,8.474,1.724,9.366,2.556-0.079.691-1.521,2.477-2.228,3.355-1.36,1.686-2.067,2.611-2.021,3.565,0.122,2.469,2.114,4.646,4.223,6.951,0.642,0.7,1.306,1.426,1.9,2.147,3.7,4.492,5.455,8.756,5.364,13.038C335.4,437.169,335.2,446.5,318.358,446.5Zm1.213-18.02c-0.258-.161-0.494-0.308-0.691-0.444a4.448,4.448,0,0,1-2.045-2.34,1.233,1.233,0,0,1,.3-1,1.967,1.967,0,0,1,1.551-.771,3.383,3.383,0,0,1,2.315.7,1.277,1.277,0,0,0,1.79.064,1.237,1.237,0,0,0,.065-1.766,5.476,5.476,0,0,0-3.227-1.453v-0.707a1.267,1.267,0,0,0-2.534,0v0.963a4.328,4.328,0,0,0-2.01,1.5,3.73,3.73,0,0,0-.745,2.879c0.234,1.382,1.275,2.72,3.091,3.974,0.224,0.155.493,0.325,0.787,0.508,2.513,1.573,3.1,2.383,2.527,3.469a2.137,2.137,0,0,1-1.618,1.068,3.387,3.387,0,0,1-2.867-1.055,1.282,1.282,0,0,0-1.792-.008,1.238,1.238,0,0,0-.008,1.768,6.275,6.275,0,0,0,2.635,1.588v2.1a1.267,1.267,0,0,0,2.534,0v-1.944a4.622,4.622,0,0,0,3.36-2.355C324.821,431.764,321.275,429.545,319.571,428.479Z" transform="translate(-299 -400)"/>
</svg>
