<svg xmlns="http://www.w3.org/2000/svg" width="9.91" height="16.375" viewBox="0 0 9.91 16.375">
  <defs>
    <style>
      .cls-1 {
        fill-rule: evenodd;
      }
    </style>
  </defs>
  <path id="Odnoclass" class="cls-1" d="M1236.08,545.418a1.059,1.059,0,0,0-1.75-.182,5.552,5.552,0,0,1-6.11,0,1.069,1.069,0,0,0-1.76.182c-0.41.819,0.06,1.214,1.1,1.881a7.1,7.1,0,0,0,2.92.863l-0.66.657c-0.93.926-1.84,1.819-2.46,2.44a0.95,0.95,0,0,0,0,1.342l0.11,0.112a0.968,0.968,0,0,0,.68.278h0a0.986,0.986,0,0,0,.68-0.278l2.45-2.44c0.94,0.926,1.84,1.82,2.46,2.44a0.972,0.972,0,0,0,1.36,0l0.11-.112a0.95,0.95,0,0,0,0-1.342l-2.46-2.44-0.66-.66a6.977,6.977,0,0,0,2.89-.86c1.05-.667,1.51-1.062,1.1-1.881h0Zm-4.81-6.682a2.037,2.037,0,1,1-2.05,2.037,2.047,2.047,0,0,1,2.05-2.037h0Zm0,6.177a4.14,4.14,0,1,0-4.17-4.14,4.16,4.16,0,0,0,4.17,4.14h0Z" transform="translate(-1226.34 -536.625)"/>
</svg>
