<svg xmlns="http://www.w3.org/2000/svg" width="45" height="52" viewBox="0 0 45 52">
  <defs>
    <style>
      .cls-1 {
        fill-rule: evenodd;
      }
    </style>
  </defs>
  <path id="Palm" class="cls-1" d="M278.922,412c-2.636-6.977-7.814-8.442-11.693-8.442a18.137,18.137,0,0,0-4.674.648,9.809,9.809,0,0,1,3.989-5.793,1.247,1.247,0,0,0-.517-2.305,20.841,20.841,0,0,0-2.148-.114,14.124,14.124,0,0,0-10.994,4.672,14.523,14.523,0,0,0-2.218,3.353,14.715,14.715,0,0,0-6.2-1.576,9.19,9.19,0,0,0-8.546,5.954,1.246,1.246,0,0,0,1.093,1.656,5.666,5.666,0,0,1,4.231,2.252,9.868,9.868,0,0,0-5.554,4.06c-2.622,4.074-1.423,9.156-1.371,9.371a1.246,1.246,0,0,0,2.167.5,13.1,13.1,0,0,1,7.078-4.626c-1.871,6.425,3.007,12.128,3.237,12.392a1.246,1.246,0,0,0,2.17-.626c1.081-6.9,3.722-9.846,5.4-11.053,0.128,8.16-1.816,23.753-1.837,23.922a1.674,1.674,0,0,0,.3,1.156,1.465,1.465,0,0,0,.935.6h7.844a1.416,1.416,0,0,0,1.223-1.187c1.62-8.423.094-21.312-.512-25.673,3.1,0.722,6.428,5.159,7.531,6.977a1.286,1.286,0,0,0,1.093.578,1.256,1.256,0,0,0,1.066-.658c1.685-3.082,2.014-5.967.974-8.564-1.266-3.164-4.267-5.065-6.2-6a6.964,6.964,0,0,1,4.144-1.093,20.482,20.482,0,0,1,6.379,1.224A1.248,1.248,0,0,0,278.922,412Zm-8-2.114c-3.367,0-5.9,1.166-7.317,3.374a1.246,1.246,0,0,0,.669,1.861c0.049,0.015,4.923,1.606,6.391,5.274a6.414,6.414,0,0,1,.025,4.439c-4.454-6.177-8.688-6.372-9.2-6.372a5.5,5.5,0,0,0-.814.061,1.241,1.241,0,0,0-.82.5,1.724,1.724,0,0,0-.226,1.108c0.026,0.158,2.426,15.414.921,25.382H255.17c0.533-4.984,2.084-18.66,1.6-25.09a1.431,1.431,0,0,0-.513-1,1.271,1.271,0,0,0-1.031-.243c-0.254.064-5.709,1.515-8.107,10.851-1.192-2.247-2.349-5.8-.521-9.293a1.257,1.257,0,0,0-1.031-1.83s-0.077-.006-0.222-0.006a13.887,13.887,0,0,0-8.851,3.758,9.189,9.189,0,0,1,1.3-4.95,8.078,8.078,0,0,1,5.583-3.363,1.248,1.248,0,0,0,.936-1.658,8.367,8.367,0,0,0-5.317-4.8,6.442,6.442,0,0,1,5.47-2.942,13.446,13.446,0,0,1,6.252,1.9,1.248,1.248,0,0,0,1.789-.74,11.339,11.339,0,0,1,10.229-7.573,12.1,12.1,0,0,0-2.923,7.442,1.246,1.246,0,0,0,1.741,1.194,16.05,16.05,0,0,1,5.676-1.112,9.047,9.047,0,0,1,8.172,4.394A20.125,20.125,0,0,0,270.927,409.883Z" transform="translate(-234 -396)"/>
</svg>
