<svg xmlns="http://www.w3.org/2000/svg" width="53" height="39" viewBox="0 0 53 39">
  <defs>
    <style>
      .cls-1 {
        fill-rule: evenodd;
      }
    </style>
  </defs>
  <path id="Photo" class="cls-1" d="M580.3,409.313H568.513l-2.1-4.737A4.529,4.529,0,0,0,562.43,402H552.107a4.478,4.478,0,0,0-3.982,2.625l-1.975,4.688H534.7a4.034,4.034,0,0,0-3.7,4.048v24.375c0,2.016,1.659,3.264,3.7,3.264h45.6c2.039,0,3.7-1.248,3.7-3.264V413.361A4.034,4.034,0,0,0,580.3,409.313Zm1.233,28.423c0,0.67-.555.827-1.233,0.827H534.7c-0.678,0-1.233-.157-1.233-0.827V413.361a1.625,1.625,0,0,1,1.233-1.611h11.863a1.833,1.833,0,0,0,1.707-.929l2.133-5.16a2.107,2.107,0,0,1,1.706-1.223H562.43a2.272,2.272,0,0,1,1.727,1.312l2.25,4.982a1.96,1.96,0,0,0,1.727,1.018H580.3a1.625,1.625,0,0,1,1.233,1.611v24.375ZM557.5,414.275a10.36,10.36,0,1,0,10.477,10.359A10.43,10.43,0,0,0,557.5,414.275Zm0,18.281a7.923,7.923,0,1,1,8.012-7.922A7.977,7.977,0,0,1,557.5,432.556Zm17.872-17.063a3.352,3.352,0,1,0,3.39,3.352A3.374,3.374,0,0,0,575.372,415.493Zm0,4.875a1.523,1.523,0,1,1,1.541-1.523A1.533,1.533,0,0,1,575.372,420.368Z" transform="translate(-531 -402)"/>
</svg>
