<svg xmlns="http://www.w3.org/2000/svg" width="56" height="49" viewBox="0 0 56 49">
  <defs>
    <style>
      .cls-1 {
        fill-rule: evenodd;
      }
    </style>
  </defs>
  <path id="Present" class="cls-1" d="M211.242,410.183H203.9c2.87-3.152,3.448-7.014,1.375-9.578a4.44,4.44,0,0,0-3.19-1.585c-2.843-.238-6.606,1.508-10.31,4.781a23.028,23.028,0,0,0-4.606,5.487,23.012,23.012,0,0,0-4.675-5.478c-3.705-3.274-7.465-5.012-10.31-4.768a4.418,4.418,0,0,0-3.19,1.563c-2.1,2.6-1.534,6.426,1.384,9.578h-7.671a3.755,3.755,0,0,0-3.709,3.8v3.782a3.726,3.726,0,0,0,3.709,3.765h1.269v22.724A3.718,3.718,0,0,0,167.687,448h38.577a3.76,3.76,0,0,0,3.758-3.748V421.528h1.22A3.768,3.768,0,0,0,215,417.763v-3.782A3.8,3.8,0,0,0,211.242,410.183Zm-17.83-4.517c3.107-2.743,6.351-4.314,8.467-4.133a1.974,1.974,0,0,1,1.473.657c1.73,2.141-.166,5.471-2.911,7.993H189.505A32.056,32.056,0,0,1,193.412,405.666ZM173.82,410.2c-2.61-2.37-4.742-5.691-2.9-7.973a1.989,1.989,0,0,1,1.473-.681c2.12-.182,5.359,1.373,8.466,4.117a28.7,28.7,0,0,1,3.984,4.522h-11C173.838,410.183,173.831,410.207,173.82,410.2Zm-12.331,7.565v-3.782a1.246,1.246,0,0,1,1.22-1.277h23.047v6.3H162.709A1.218,1.218,0,0,1,161.489,417.763Zm4.978,26.489V421.528h19.289v23.951H167.687A1.209,1.209,0,0,1,166.467,444.252Zm41.066,0a1.251,1.251,0,0,1-1.269,1.227h-18.02V421.528h19.289v22.724Zm4.978-26.489a1.26,1.26,0,0,1-1.269,1.244h-23v-6.3h23a1.288,1.288,0,0,1,1.269,1.277v3.782Z" transform="translate(-159 -399)"/>
</svg>
