<svg xmlns="http://www.w3.org/2000/svg" width="12" height="12" viewBox="0 0 12 12">
  <defs>
    <style>
      .cls-1 {
        fill-rule: evenodd;
      }
    </style>
  </defs>
  <path id="Search" class="cls-1" d="M884.573,78a0.426,0.426,0,0,1-.3-0.126l-4.295-4.309a0.428,0.428,0,1,1,.6-0.606l4.295,4.309a0.429,0.429,0,0,1,0,.606A0.423,0.423,0,0,1,884.573,78Zm-7.144-3.113a4.443,4.443,0,1,1,4.429-4.443A4.441,4.441,0,0,1,877.429,74.887Zm0-8.03A3.586,3.586,0,1,0,881,70.443,3.584,3.584,0,0,0,877.429,66.857Z" transform="translate(-873 -66)"/>
</svg>
