<svg xmlns="http://www.w3.org/2000/svg" width="18" height="18" viewBox="0 0 18 18">
  <defs>
    <style>
      .cls-1 {
        fill-rule: evenodd;
      }
    </style>
  </defs>
  <path id="Skype" class="cls-1" d="M1811.25,227.3a8.011,8.011,0,0,0,.1-1.3,8.343,8.343,0,0,0-9.65-8.249,5.05,5.05,0,0,0-7.7,4.3,5.081,5.081,0,0,0,.75,2.65,9.313,9.313,0,0,0-.1,1.3,8.355,8.355,0,0,0,9.65,8.249A5.05,5.05,0,0,0,1811.25,227.3Zm-4.29,2.5a3.442,3.442,0,0,1-1.55,1.192,6.178,6.178,0,0,1-2.41.429,5.711,5.711,0,0,1-2.75-.588,3.521,3.521,0,0,1-1.26-1.129,2.478,2.478,0,0,1-.49-1.381,0.907,0.907,0,0,1,.3-0.684,1.07,1.07,0,0,1,.76-0.285,0.926,0.926,0,0,1,.63.223,1.629,1.629,0,0,1,.44.646,3.7,3.7,0,0,0,.46.822,1.821,1.821,0,0,0,.68.539,3.3,3.3,0,0,0,2.79-.217,1.243,1.243,0,0,0,.62-1.059,1.063,1.063,0,0,0-.33-0.813,2.161,2.161,0,0,0-.87-0.485,14.325,14.325,0,0,0-1.44-.36,11.566,11.566,0,0,1-2.03-.618,3.333,3.333,0,0,1-1.31-.968,2.432,2.432,0,0,1-.48-1.533,2.507,2.507,0,0,1,.51-1.548,3.215,3.215,0,0,1,1.48-1.039,6.432,6.432,0,0,1,2.26-.361,6.024,6.024,0,0,1,1.8.239,3.819,3.819,0,0,1,1.26.638,2.6,2.6,0,0,1,.74.839,1.8,1.8,0,0,1,.24.862,1.047,1.047,0,0,1-1.05,1.018,0.875,0.875,0,0,1-.61-0.191,2.47,2.47,0,0,1-.45-0.6,2.68,2.68,0,0,0-.73-0.907,2.2,2.2,0,0,0-1.35-.321,2.5,2.5,0,0,0-1.4.351,1,1,0,0,0-.52.831,0.829,0.829,0,0,0,.17.516,1.549,1.549,0,0,0,.5.38,3.215,3.215,0,0,0,.64.253q0.33,0.093,1.08.27c0.64,0.136,1.21.289,1.73,0.455a5.42,5.42,0,0,1,1.31.607,2.594,2.594,0,0,1,.86.912,2.8,2.8,0,0,1,.31,1.348A2.9,2.9,0,0,1,1806.96,229.8Z" transform="translate(-1794 -217)"/>
</svg>
