<svg xmlns="http://www.w3.org/2000/svg" width="20" height="17" viewBox="0 0 20 17">
  <defs>
    <style>
      .cls-1 {
        fill-rule: evenodd;
      }
    </style>
  </defs>
  <path id="Telegram" class="cls-1" d="M1761,225.508a0.88,0.88,0,0,1,.54-0.424l18.61-7a1.083,1.083,0,0,1,.37-0.087,0.523,0.523,0,0,1,.49.677c-0.21,1.033-.43,2.065-0.65,3.1q-1.095,5.1-2.18,10.2l-0.54,2.537a0.55,0.55,0,0,1-.93.343q-2.22-1.565-4.43-3.136a0.848,0.848,0,0,0-1.23.035c-0.78.623-1.57,1.246-2.35,1.869a0.558,0.558,0,0,1-.97-0.292c-0.56-1.752-1.13-3.5-1.68-5.258a0.437,0.437,0,0,0-.32-0.335c-1.41-.5-2.81-1.025-4.23-1.533a0.753,0.753,0,0,1-.5-0.434v-0.268Zm6.03,2.207a1.334,1.334,0,0,0,.05.233c0.31,1.087.63,2.173,0.95,3.26a0.244,0.244,0,0,0,.26.227,0.236,0.236,0,0,0,.22-0.267c0.07-.492.15-0.981,0.2-1.474a2.02,2.02,0,0,1,.72-1.367q3.495-3.141,6.97-6.307a1.883,1.883,0,0,0,.26-0.252,0.2,0.2,0,0,0,.03-0.193,0.32,0.32,0,0,0-.22-0.04,0.451,0.451,0,0,0-.15.083c-1.87,1.126-3.75,2.253-5.62,3.379-1.05.634-2.11,1.268-3.16,1.9A0.969,0.969,0,0,0,1767.03,227.715Z" transform="translate(-1761 -218)"/>
</svg>
