<svg xmlns="http://www.w3.org/2000/svg" width="22" height="53" viewBox="0 0 22 53">
  <defs>
    <style>
      .cls-1 {
        fill-rule: evenodd;
      }
    </style>
  </defs>
  <path id="Tie" class="cls-1" d="M902.006,436.03c-1.255-10.293-6.507-27.413-7.672-31.134,3.763-4.008,5.06-10.342,5.116-10.622a1.241,1.241,0,0,0-.987-1.448,43.066,43.066,0,0,0-7.439-.835,43.728,43.728,0,0,0-7.463.833,1.241,1.241,0,0,0-.989,1.447c0.055,0.28,1.344,6.616,5.107,10.624-1.168,3.722-6.427,20.828-7.682,31.12a1.219,1.219,0,0,0,.285.938,41.848,41.848,0,0,0,9.967,7.873,1.25,1.25,0,0,0,.638.172,1.3,1.3,0,0,0,.366-0.056,1.138,1.138,0,0,0,.674-0.343c6.876-3.775,9.726-7.535,9.846-7.7A1.217,1.217,0,0,0,902.006,436.03Zm-10.982-41.559a36,36,0,0,1,5.621.625c-0.544,1.943-1.858,5.9-4.282,8.382H889.65c-2.423-2.48-3.733-6.438-4.274-8.382A36.542,36.542,0,0,1,891.024,394.471Zm-0.11,47.84a42.605,42.605,0,0,1-8.317-6.477c1.311-9.859,6.242-26.156,7.463-29.876h1.893c1.22,3.72,6.154,20.074,7.458,29.93A32.251,32.251,0,0,1,890.914,442.311Z" transform="translate(-880 -392)"/>
</svg>
