<svg xmlns="http://www.w3.org/2000/svg" width="18" height="15" viewBox="0 0 18 15">
  <defs>
    <style>
      .cls-1 {
        fill-rule: evenodd;
      }
    </style>
  </defs>
  <path id="twitter" class="cls-1" d="M1269.19,540.561l1.81-.366a15.692,15.692,0,0,1-1.81,1.829l-0.01,0a5.665,5.665,0,0,0,.01,1.1c-3.46,15.082-16.19,8.415-16.19,8.415,4.63,0.124,5.04-1.83,5.04-1.83-2.71-.417-3.23-2.2-3.23-2.2a1.127,1.127,0,0,0,1.44-.366,3.312,3.312,0,0,1-2.52-3.658,3.406,3.406,0,0,0,1.77.693c-0.34-.391-3.07-3.724-1.41-5.449a8.956,8.956,0,0,0,7.28,4l0.35-.09a4.21,4.21,0,0,1-.08-0.8,3.81,3.81,0,0,1,3.78-3.841c2.51,0,3.05,1.463,3.05,1.463l1.8-1.1S1270.07,540.2,1269.19,540.561Z" transform="translate(-1253 -538)"/>
</svg>
