<svg xmlns="http://www.w3.org/2000/svg" width="20" height="21" viewBox="0 0 20 21">
  <defs>
    <style>
      .cls-1 {
        fill-rule: evenodd;
      }
    </style>
  </defs>
  <path id="Viber" class="cls-1" d="M1717.74,217.049c-0.52-.48-2.64-2.012-7.36-2.034,0,0-5.56-.332-8.27,2.144-1.51,1.5-2.04,3.7-2.1,6.432s-0.13,7.837,4.82,9.222h0.01l-0.01,2.116a1.077,1.077,0,0,0,.54,1.03c0.68,0.21,1.08-.441,1.74-1.142,0.36-.384.85-0.95,1.23-1.383a19.184,19.184,0,0,0,6.28-.46c0.68-.223,4.55-0.714,5.18-5.825,0.65-5.27-.32-8.6-2.06-10.1v0Zm0.58,9.724c-0.54,4.265-3.67,4.537-4.25,4.721a17.683,17.683,0,0,1-5.41.459s-2.14,2.573-2.81,3.242a0.352,0.352,0,0,1-.31.126,0.321,0.321,0,0,1-.14-0.361c0-.283.02-3.513,0.02-3.513h0c-4.19-1.159-3.94-5.509-3.9-7.788s0.48-4.144,1.76-5.4c2.29-2.069,7.01-1.759,7.01-1.759,3.99,0.016,5.91,1.213,6.35,1.614,1.47,1.255,2.22,4.258,1.67,8.658h0.01Zm-12.05-7.414a0.715,0.715,0,0,1,.55.272s0.51,0.609.73,0.906c0.21,0.279.48,0.725,0.63,0.975a0.854,0.854,0,0,1-.16,1.092l-0.49.394a0.723,0.723,0,0,0-.22.572,5.134,5.134,0,0,0,3.47,3.459,0.728,0.728,0,0,0,.58-0.216l0.4-.495a0.856,0.856,0,0,1,1.09-.151,11.587,11.587,0,0,1,.98.623c0.3,0.218.91,0.722,0.91,0.724a0.747,0.747,0,0,1,.16.982V228.5a4.358,4.358,0,0,1-.82,1l-0.01,0a1.621,1.621,0,0,1-.83.4,0.529,0.529,0,0,1-.12.006,1.211,1.211,0,0,1-.36-0.052l-0.01-.013a11.924,11.924,0,0,1-2.28-1.056,13.922,13.922,0,0,1-1.93-1.264,9.6,9.6,0,0,1-.86-0.761l-0.06-.058-0.03-.03-0.03-.029a9.565,9.565,0,0,1-.76-0.858,13.229,13.229,0,0,1-1.27-1.914,11.757,11.757,0,0,1-1.06-2.277l-0.01-.009a1.085,1.085,0,0,1-.06-0.352,0.438,0.438,0,0,1,.01-0.122,1.625,1.625,0,0,1,.4-0.827s0,0,.01-0.008a4.111,4.111,0,0,1,1-.818h0.01a0.917,0.917,0,0,1,.43-0.114h0.01Zm3.59-.6h0.11l0.06,0h0.02l0.07,0c0.03,0,.06,0,0.09,0l0.04,0,0.05,0a0.139,0.139,0,0,1,.04,0c0.03,0,.07,0,0.1.008l0.06,0.007,0.06,0.006,0.12,0.013,0.06,0.009,0.12,0.02,0.02,0c0.03,0,.06.009,0.09,0.016h0.01l0.07,0.013c0.03,0.006.05,0.013,0.08,0.017l0.04,0.009,0.04,0.009,0.08,0.016v0l0.06,0.014,0.04,0.013,0.04,0.006,0.03,0.008,0.03,0.009,0.03,0.01,0.06,0.015,0.04,0.013,0.04,0.014,0.04,0.013,0.04,0.013,0.07,0.022,0.03,0.013,0.04,0.013,0.11,0.04,0.05,0.023,0.12,0.048,0.04,0.019,0.04,0.016,0.08,0.034,0.04,0.021,0.02,0.013,0.06,0.027,0.03,0.015,0.05,0.027,0.04,0.019,0.04,0.026,0.05,0.027,0.04,0.026a0.146,0.146,0,0,1,.03.016l0.05,0.029,0.04,0.026,0.06,0.039,0.04,0.021,0.06,0.04,0.01,0.006,0.04,0.026,0.08,0.058,0.04,0.026,0.04,0.027,0.02,0.019,0.04,0.029,0.07,0.057,0.06,0.042,0.04,0.031,0.02,0.016,0.02,0.021,0.07,0.06,0.04,0.033,0.02,0.022a0.183,0.183,0,0,1,.04.035l0.04,0.034a0.151,0.151,0,0,0,.02.017l0.11,0.1c0.01,0.015.03,0.03,0.04,0.044a1.192,1.192,0,0,1,.11.119l0.03,0.031c0.02,0.021.04,0.042,0.06,0.066l0.03,0.03,0.14,0.17c0.01,0.018.03,0.036,0.04,0.053a0.345,0.345,0,0,0,.03.034l0.08,0.118,0.03,0.04a0.639,0.639,0,0,1,.07.1l0.07,0.1,0.04,0.081,0.06,0.088c0.01,0.027.03,0.053,0.04,0.079l0.01,0.026c0.01,0.016.02,0.033,0.03,0.053l0.06,0.128a0.843,0.843,0,0,1,.07.132l0.03,0.065c0.05,0.118.1,0.241,0.14,0.364a5.224,5.224,0,0,1,.16.549,3.083,3.083,0,0,1,.09.42l0.03,0.2a2.38,2.38,0,0,1,.03.263,1.861,1.861,0,0,1,.03.331c0.01,0.1.01,0.2,0.01,0.308a0.767,0.767,0,0,1,.01.151v0.043l-0.02.044c0,0.013-.01.029-0.01,0.042a0.69,0.69,0,0,1-.06.068,0.188,0.188,0,0,1-.07.049,0.272,0.272,0,0,1-.09.023h-0.04a0.163,0.163,0,0,1-.08-0.02,0.242,0.242,0,0,1-.08-0.047,0.2,0.2,0,0,1-.05-0.069,0.134,0.134,0,0,1-.03-0.082l-0.01-.044v-0.281c-0.01-.188-0.03-0.374-0.05-0.561-0.01-.123-0.03-0.246-0.05-0.367-0.01-.063-0.03-0.124-0.04-0.184l-0.03-.131-0.03-.118-0.02-.079-0.04-.134c-0.03-.1-0.06-0.207-0.1-0.308-0.03-.073-0.06-0.145-0.09-0.213l-0.03-.056a2.51,2.51,0,0,0-.11-0.237l-0.03-.046c-0.06-.114-0.12-0.225-0.19-0.333-0.02-.024-0.03-0.046-0.05-0.07l-0.01-.018c-0.02-.029-0.04-0.055-0.06-0.081a2.319,2.319,0,0,0-.16-0.2,1.019,1.019,0,0,0-.11-0.131l-0.02-.019-0.04-.044-0.03-.035-0.06-.065-0.02-.017-0.06-.059-0.04-.04-0.07-.065-0.04-.033-0.04-.036-0.01-.013a0.569,0.569,0,0,1-.07-0.056l-0.06-.053-0.03-.019a0.288,0.288,0,0,0-.05-0.042l-0.07-.055-0.05-.036-0.01-.006-0.03-.021-0.06-.045a0.1,0.1,0,0,0-.02-0.017c-0.01-.009-0.03-0.017-0.04-0.026a0.056,0.056,0,0,0-.02-0.014v0l-0.04-.02a0.189,0.189,0,0,0-.05-0.035l-0.04-.024-0.07-.042-0.06-.034v0l-0.03-.02-0.03-.018h-0.01l-0.02-.013-0.06-.03v0l-0.03-.013-0.04-.021-0.01,0-0.03-.017-0.02-.009-0.05-.023v0l-0.03-.013-0.05-.021-0.01-.009c-0.03-.013-0.06-0.024-0.09-0.036l-0.07-.026v0l-0.13-.047-0.04-.016a0.1,0.1,0,0,0-.04-0.013l-0.03-.013a0.635,0.635,0,0,1-.07-0.023l-0.03-.013a0.1,0.1,0,0,1-.03,0l-0.05-.016h0l-0.03-.009-0.04-.013h-0.01l-0.03-.013a0.109,0.109,0,0,1-.03-0.007h-0.01l-0.03,0-0.02,0-0.01,0-0.04-.009h0a0.111,0.111,0,0,0-.03-0.008l-0.04-.01h-0.01a0.247,0.247,0,0,0-.06-0.013v0l-0.06-.01a0.573,0.573,0,0,0-.07-0.013l-0.01,0-0.04-.008-0.04-.008-0.05-.006-0.05-.009-0.06-.008-0.15-.02-0.06-.006h-0.02c-0.04-.006-0.07-0.008-0.11-0.011l-0.06-.005-0.06,0h-0.03a0.217,0.217,0,0,0-.05,0l-0.06,0h-0.04l-0.07,0h-0.08l-0.01,0a0.136,0.136,0,0,1-.04,0,0.178,0.178,0,0,1-.08-0.029,0.223,0.223,0,0,1-.07-0.053l-0.03-.036a0.133,0.133,0,0,1-.03-0.079,0.271,0.271,0,0,1-.01-0.089,0.24,0.24,0,0,1,.02-0.084,0.216,0.216,0,0,1,.05-0.073,0.2,0.2,0,0,1,.07-0.052,0.322,0.322,0,0,1,.08-0.029,0.28,0.28,0,0,0,.05,0h0.01Zm0.49,1.378,0.03,0,0.06,0a0.116,0.116,0,0,1,.02,0c0.02,0,.04,0,0.07.006l0.05,0.006,0.02,0,0.04,0,0.04,0.007,0.05,0.006a0.042,0.042,0,0,1,.02,0l0.04,0,0.06,0.011,0.05,0.008c0.01,0,.02,0,0.03,0l0.04,0.009,0.02,0,0.1,0.021,0.05,0.009,0.04,0.009,0.04,0.011a0.071,0.071,0,0,1,.02,0l0.04,0.013,0.05,0.013,0.04,0.013a0.111,0.111,0,0,1,.03.008,0.159,0.159,0,0,0,.03.006,0.172,0.172,0,0,0,.05.02l0.03,0.008a0.5,0.5,0,0,0,.08.026l0.04,0.017,0.04,0.017,0.1,0.04a0.172,0.172,0,0,1,.05.02l0.04,0.015c0.03,0.016.07,0.034,0.11,0.053l0.05,0.021,0.04,0.023,0.05,0.024c0.04,0.02.07,0.039,0.11,0.06l0.02,0.014,0.04,0.021,0.02,0.013,0.06,0.039,0.03,0.022a0.649,0.649,0,0,0,.06.037l0.02,0.018,0.03,0.019,0.04,0.03,0.05,0.039a0.3,0.3,0,0,1,.03.023,0.151,0.151,0,0,0,.02.017l0.03,0.026,0.04,0.026,0.03,0.027,0.04,0.039,0.03,0.026,0.01,0.013,0.08,0.072,0.01,0.014c0.01,0.013.03,0.023,0.04,0.035l0.01,0.016L1713,221.3l0.04,0.04,0.02,0.026,0.04,0.043a0.509,0.509,0,0,1,.03.042l0.08,0.1,0.02,0.026,0.05,0.066,0.02,0.026,0.01,0.019,0.03,0.031,0.02,0.032,0.03,0.046c0.01,0.021.03,0.039,0.04,0.061a0.015,0.015,0,0,0,.01.017l0.03,0.053,0.02,0.033a0.062,0.062,0,0,0,.02.037l0.02,0.043,0.03,0.058,0.03,0.048a0.088,0.088,0,0,0,.02.043c0.01,0.036.03,0.07,0.04,0.1a0.079,0.079,0,0,1,.02.04l0.04,0.1a0.618,0.618,0,0,1,.06.177,0.083,0.083,0,0,1,.02.046l0.03,0.118,0.04,0.155,0.04,0.214q0.015,0.094.03,0.186c0.01,0.1.02,0.21,0.02,0.318l0.01,0.189v0.136c-0.01.014-.01,0.027-0.02,0.04a0.142,0.142,0,0,1-.04.079,0.768,0.768,0,0,1-.06.056,0.364,0.364,0,0,1-.09.033,0.255,0.255,0,0,1-.08,0,0.274,0.274,0,0,1-.09-0.024,0.332,0.332,0,0,0-.04-0.021,0.485,0.485,0,0,1-.06-0.06,0.236,0.236,0,0,1-.04-0.079c0-.013-0.01-0.026-0.01-0.042v-0.224c0-.112-0.01-0.223-0.02-0.332-0.02-.125-0.04-0.25-0.06-0.37a1.841,1.841,0,0,0-.07-0.233l-0.02-.088-0.03-.073-0.01-.026c-0.01-.036-0.03-0.071-0.04-0.105a0.232,0.232,0,0,0-.04-0.076l-0.06-.136-0.06-.1a0.147,0.147,0,0,1-.01-0.013l-0.02-.042-0.01-.006c-0.01-.013-0.01-0.024-0.02-0.036l-0.04-.06-0.04-.053a0.654,0.654,0,0,0-.08-0.114c-0.04-.05-0.08-0.1-0.12-0.148a0.138,0.138,0,0,1-.04-0.04l-0.03-.026-0.01-.016-0.02-.021-0.02-.019-0.05-.049-0.1-.1-0.07-.058v0l-0.03-.021-0.03-.026-0.01-.008a0.228,0.228,0,0,0-.03-0.017l-0.03-.026-0.01-.008-0.06-.039-0.02-.011-0.02-.016c-0.01,0-.02-0.013-0.03-0.017a0.5,0.5,0,0,1-.05-0.035l-0.02-.011-0.05-.028v-0.006l-0.05-.026-0.03-.013-0.01,0-0.03-.018v0l-0.04-.018h0c-0.03-.017-0.07-0.032-0.1-0.046-0.01-.008-0.03-0.013-0.04-0.021l-0.03-.013-0.02-.01-0.04-.017-0.04-.013-0.05-.02-0.05-.018h0l-0.02-.006-0.04-.014-0.01,0-0.08-.026-0.05-.016-0.03-.007-0.03-.009h-0.01a0.45,0.45,0,0,0-.06-0.017l-0.03-.008-0.04-.009h-0.01l-0.02,0h0l-0.04-.01-0.02-.005-0.05-.01-0.06-.011-0.02,0-0.05-.008-0.04-.006-0.06-.008-0.05-.008-0.06-.006-0.04-.006h-0.03l-0.06-.008-0.06,0-0.04,0-0.05-.007-0.04-.013a0.425,0.425,0,0,1-.07-0.049,0.592,0.592,0,0,1-.06-0.068c-0.01-.026-0.02-0.052-0.03-0.081v-0.088c0.01-.029.02-0.058,0.03-0.083s0.01-.026.02-0.037a0.242,0.242,0,0,1,.07-0.06,0.093,0.093,0,0,1,.04-0.021,0.2,0.2,0,0,1,.08-0.024h0.05Zm0.4,1.425a0.231,0.231,0,0,1,.04,0,0.1,0.1,0,0,1,.03,0l0.05,0a2.281,2.281,0,0,1,.27.039l0.1,0.021,0.02,0.006,0.1,0.027a0.491,0.491,0,0,0,.05.017l0.03,0.013c0.04,0.013.08,0.03,0.12,0.047l0.01,0,0.05,0.021,0.08,0.04,0.02,0.01a0.214,0.214,0,0,0,.04.023,0.149,0.149,0,0,0,.05.032c0.04,0.029.08,0.059,0.12,0.092l0.1,0.079c0.02,0.024.05,0.049,0.07,0.076l0.05,0.061a0.034,0.034,0,0,1,.02.019l0.02,0.027,0.04,0.043c0.02,0.039.05,0.079,0.07,0.118l0.07,0.118c0.01,0.032.03,0.066,0.04,0.1s0.03,0.059.04,0.089a2.284,2.284,0,0,1,.07.258,1.932,1.932,0,0,1,.05.245l0.01,0.127,0.01,0.119V223.5a0.146,0.146,0,0,1-.03.088,0.176,0.176,0,0,1-.06.083,0.215,0.215,0,0,1-.09.053,0.251,0.251,0,0,1-.07.015,0.241,0.241,0,0,1-.08-0.008,0.187,0.187,0,0,1-.08-0.039,0.263,0.263,0,0,1-.08-0.072,0.309,0.309,0,0,1-.04-0.1v-0.073a0.121,0.121,0,0,0-.01-0.059l-0.01-.092-0.01-.113-0.02-.092-0.01-.048c-0.01-.019-0.01-0.037-0.02-0.053a1.245,1.245,0,0,0-.13-0.319l-0.03-.052-0.04-.059-0.04-.048-0.02-.023-0.05-.059-0.06-.053-0.06-.039a0.491,0.491,0,0,0-.05-0.034l-0.06-.032-0.05-.03-0.04-.013-0.01-.008-0.07-.026a0.836,0.836,0,0,0-.08-0.027l-0.07-.021-0.04-.009a0.1,0.1,0,0,1-.03-0.005l-0.03,0-0.04-.008-0.03,0-0.04-.007-0.04-.005-0.04,0h-0.03c-0.02,0-.04,0-0.06,0a0.1,0.1,0,0,1-.03,0h-0.01a0.068,0.068,0,0,1-.02,0l-0.02-.006a0.188,0.188,0,0,1-.07-0.03,0.245,0.245,0,0,1-.12-0.151,0.21,0.21,0,0,1-.01-0.078,0.355,0.355,0,0,1,.02-0.1,0.186,0.186,0,0,1,.06-0.085,0.4,0.4,0,0,1,.06-0.046,0.306,0.306,0,0,1,.09-0.026,0.1,0.1,0,0,1,.03,0h0.03Z" transform="translate(-1700 -215)"/>
</svg>
