<svg xmlns="http://www.w3.org/2000/svg" width="35.969" height="28" viewBox="0 0 35.969 28">
  <defs>
    <style>
      .cls-1 {
        fill-rule: evenodd;
      }
    </style>
  </defs>
  <path id="Video" class="cls-1" d="M202.459,76.925H179.43a6.5,6.5,0,0,1-6.476-6.5V55.451a6.5,6.5,0,0,1,6.476-6.5h23.029a6.5,6.5,0,0,1,6.477,6.5V70.424A6.5,6.5,0,0,1,202.459,76.925ZM179.43,50.47a4.978,4.978,0,0,0-4.963,4.981V70.424a4.979,4.979,0,0,0,4.963,4.982h23.029a4.979,4.979,0,0,0,4.963-4.982V55.451a4.978,4.978,0,0,0-4.963-4.981H179.43ZM187,70.057a0.758,0.758,0,0,1-.756-0.76V56.578a0.759,0.759,0,0,1,.377-0.657,0.75,0.75,0,0,1,.754,0l11.109,6.36a0.76,0.76,0,0,1,0,1.319L187.37,69.957A0.755,0.755,0,0,1,187,70.057Zm0.757-12.171v10.1l8.824-5.052Z" transform="translate(-172.969 -48.938)"/>
</svg>
