<svg xmlns="http://www.w3.org/2000/svg" width="17.66" height="10.187" viewBox="0 0 17.66 10.187">
  <defs>
    <style>
      .cls-1 {
        fill-rule: evenodd;
      }
    </style>
  </defs>
  <path id="vk" class="cls-1" d="M1170.88,549.654h1.05a0.878,0.878,0,0,0,.48-0.211,0.8,0.8,0,0,0,.15-0.466s-0.02-1.422.63-1.632,1.48,1.375,2.36,1.983a1.66,1.66,0,0,0,1.17.359l2.36-.033s1.23-.076.65-1.051a7.985,7.985,0,0,0-1.75-2.037c-1.48-1.378-1.28-1.155.5-3.54,1.08-1.452,1.51-2.338,1.38-2.718a1.03,1.03,0,0,0-.93-0.266l-2.65.016a0.6,0.6,0,0,0-.34.061,0.71,0.71,0,0,0-.24.286,15.454,15.454,0,0,1-.98,2.079c-1.18,2.017-1.65,2.124-1.84,2-0.45-.292-0.34-1.172-0.34-1.8,0-1.954.29-2.769-.57-2.979a4.557,4.557,0,0,0-1.24-.124,5.671,5.671,0,0,0-2.2.226c-0.31.149-.54,0.48-0.4,0.5a1.188,1.188,0,0,1,.79.395,2.6,2.6,0,0,1,.26,1.207s0.15,2.3-.37,2.586c-0.35.2-.84-0.2-1.9-2.033a16.261,16.261,0,0,1-.94-1.974,0.8,0.8,0,0,0-.22-0.3,1.1,1.1,0,0,0-.41-0.166l-2.52.017a0.867,0.867,0,0,0-.52.176,0.57,0.57,0,0,0-.01.451s1.98,4.642,4.21,6.981A6.042,6.042,0,0,0,1170.88,549.654Z" transform="translate(-1162.25 -539.594)"/>
</svg>
