<svg xmlns="http://www.w3.org/2000/svg" width="19" height="19" viewBox="0 0 19 19">
  <defs>
    <style>
      .cls-1 {
        fill-rule: evenodd;
      }
    </style>
  </defs>
  <path id="Watsup" class="cls-1" d="M1741.1,216h1.16a0.736,0.736,0,0,0,.13.029,9.365,9.365,0,0,1,6.74,3.672,9.05,9.05,0,0,1,1.78,4.339l0.09,0.643v1.154a0.592,0.592,0,0,0-.03.131,9.367,9.367,0,0,1-.6,2.607,9.235,9.235,0,0,1-2.1,3.224,9.054,9.054,0,0,1-1.99,1.506,9.226,9.226,0,0,1-4.29,1.2,9.356,9.356,0,0,1-4.72-1.086,0.268,0.268,0,0,0-.19-0.028c-0.76.233-1.51,0.475-2.26,0.713-0.6.191-1.2,0.379-1.8,0.573-0.32.1-.64,0.217-0.96,0.326l-0.06-.061a1.653,1.653,0,0,0,.09-0.2c0.1-.277.19-0.557,0.28-0.834,0.42-1.249.85-2.5,1.27-3.748a0.393,0.393,0,0,0-.02-0.239c-0.12-.237-0.25-0.464-0.37-0.7a8.471,8.471,0,0,1-.72-2.134,9.282,9.282,0,0,1,7.88-11Zm-6.76,16.708c0.16-.046.28-0.08,0.4-0.117,0.8-.257,1.61-0.512,2.42-0.776a0.41,0.41,0,0,1,.38.048,7.586,7.586,0,0,0,3.22,1.124,7.741,7.741,0,0,0,2.95-.212,7.84,7.84,0,0,0,3.19-1.734,7.633,7.633,0,0,0,2.02-2.836,7.806,7.806,0,0,0-5.57-10.544,7.8,7.8,0,0,0-9.1,10.114,8.05,8.05,0,0,0,1.01,1.962,0.274,0.274,0,0,1,.03.177c-0.18.529-.36,1.054-0.54,1.581C1734.62,231.884,1734.49,232.277,1734.34,232.706Zm2.78-9.63a2.5,2.5,0,0,1,.92-1.85,0.877,0.877,0,0,1,.45-0.18,2.15,2.15,0,0,1,.62.021,0.43,0.43,0,0,1,.27.187c0.15,0.3.28,0.613,0.42,0.923,0.12,0.3.23,0.6,0.37,0.893a0.6,0.6,0,0,1-.08.653c-0.15.208-.32,0.4-0.49,0.6a0.332,0.332,0,0,0-.05.453,6.488,6.488,0,0,0,1.67,1.882,7.03,7.03,0,0,0,1.39.781,0.406,0.406,0,0,0,.6-0.13q0.315-.384.63-0.778a0.36,0.36,0,0,1,.51-0.15c0.62,0.29,1.25.591,1.87,0.886a0.28,0.28,0,0,1,.18.273,2.325,2.325,0,0,1-.18.975,1.678,1.678,0,0,1-.63.659,2.388,2.388,0,0,1-1.31.437,2.939,2.939,0,0,1-.96-0.16c-0.54-.17-1.08-0.373-1.61-0.585a6.075,6.075,0,0,1-1.53-.944,11.612,11.612,0,0,1-2.23-2.516,4.783,4.783,0,0,1-.77-1.684C1737.14,223.511,1737.14,223.291,1737.12,223.076Z" transform="translate(-1732 -216)"/>
</svg>
