<svg xmlns="http://www.w3.org/2000/svg" width="35" height="36.969" viewBox="0 0 35 36.969">
  <defs>
    <style>
      .cls-1 {
        fill-rule: evenodd;
      }
    </style>
  </defs>
  <path id="Web_casm" data-name="Web casm" class="cls-1" d="M379.7,71.651a13.343,13.343,0,1,1,13.066-13.34A13.221,13.221,0,0,1,379.7,71.651Zm0-25.164a11.826,11.826,0,1,0,11.581,11.823A11.717,11.717,0,0,0,379.7,46.487Zm0,16.715a4.892,4.892,0,1,1,4.791-4.891A4.847,4.847,0,0,1,379.7,63.2Zm0-8.265a3.375,3.375,0,1,0,3.306,3.374A3.344,3.344,0,0,0,379.7,54.937Zm16.5,27.012H362.672a0.751,0.751,0,0,1-.743-0.758c0-6.1,6.168-11.055,13.75-11.055h7.52c7.581,0,13.749,4.959,13.749,11.055A0.75,0.75,0,0,1,396.206,81.949Zm-32.753-1.516h31.972c-0.5-4.906-5.791-8.78-12.226-8.78h-7.52C369.245,71.652,363.952,75.526,363.453,80.432Z" transform="translate(-361.938 -44.969)"/>
</svg>
