<svg xmlns="http://www.w3.org/2000/svg" width="20" height="24" viewBox="0 0 20 24">
  <defs>
    <style>
      .cls-1 {
        fill-rule: evenodd;
      }
    </style>
  </defs>
  <path id="Znak" class="cls-1" d="M240.846,229.069a2.307,2.307,0,0,0-.217-2.106l-0.557-.805a1.518,1.518,0,0,1-.247-0.712l-0.093-.96a2.366,2.366,0,0,0-1.176-1.765l-0.866-.464a2.151,2.151,0,0,1-.557-0.5l-0.557-.805a2.375,2.375,0,0,0-1.856-1.021h-0.959a1.433,1.433,0,0,1-.711-0.186l-0.866-.465a2.27,2.27,0,0,0-2.135-.031l-0.866.434a1.469,1.469,0,0,1-.743.186h-0.99a2.315,2.315,0,0,0-1.856.959l-0.557.806a1.694,1.694,0,0,1-.557.5l-0.866.433a2.33,2.33,0,0,0-1.237,1.734l-0.124.96a1.565,1.565,0,0,1-.279.713l-0.556.8a2.319,2.319,0,0,0-.279,2.105l0.341,0.929a1.553,1.553,0,0,1,.092.743l-0.123.96a2.277,2.277,0,0,0,.742,1.982l0.712,0.65a1.744,1.744,0,0,1,.433.619l0.34,0.929a2.22,2.22,0,0,0,1.578,1.425l0.928,0.247a1.381,1.381,0,0,1,.65.372l0.711,0.65h0v4.242a0.341,0.341,0,0,0,.186.31,0.393,0.393,0,0,0,.371,0l2.908-1.8,2.908,1.8a0.441,0.441,0,0,0,.186.062,0.391,0.391,0,0,0,.185-0.031,0.341,0.341,0,0,0,.186-0.31v-4.3l0.557-.5a1.759,1.759,0,0,1,.68-0.341l0.959-.217a2.28,2.28,0,0,0,1.609-1.393l0.371-.9a1.727,1.727,0,0,1,.433-0.619l0.743-.651a2.3,2.3,0,0,0,.773-1.981l-0.093-.96a1.552,1.552,0,0,1,.093-0.743Zm-9.714,11.3a0.4,0.4,0,0,0-.372,0l-2.567,1.579v-3.189a2.45,2.45,0,0,0,1.33.092l0.959-.216a1.5,1.5,0,0,1,.742,0l0.929,0.247a1.7,1.7,0,0,0,.556.062,2.078,2.078,0,0,0,.959-0.216v3.189Zm9.033-11.581-0.371.9a2.562,2.562,0,0,0-.155,1.084l0.093,0.96a1.6,1.6,0,0,1-.526,1.362l-0.742.65a2.239,2.239,0,0,0-.619.9l-0.371.9a1.525,1.525,0,0,1-1.114.96l-0.959.217a2.2,2.2,0,0,0-.959.495l-0.743.651a1.6,1.6,0,0,1-1.423.34l-0.928-.247a1.8,1.8,0,0,0-.588-0.062,3.054,3.054,0,0,0-.526.062l-0.959.216a1.615,1.615,0,0,1-1.423-.371l-0.711-.651a2.457,2.457,0,0,0-.959-0.526l-0.928-.248a1.576,1.576,0,0,1-1.083-.99l-0.34-.929a2.235,2.235,0,0,0-.619-0.9l-0.712-.651a1.611,1.611,0,0,1-.5-1.362l0.124-.96a2.144,2.144,0,0,0-.124-1.084l-0.34-.928a1.619,1.619,0,0,1,.186-1.456l0.557-.805a2.453,2.453,0,0,0,.4-1.022l0.124-.96a1.461,1.461,0,0,1,.835-1.176l0.866-.434a2.053,2.053,0,0,0,.835-0.712l0.557-.8a1.615,1.615,0,0,1,1.269-.65h0.989a2.386,2.386,0,0,0,1.052-.248l0.867-.433a1.515,1.515,0,0,1,1.454.031l0.866,0.464a2.052,2.052,0,0,0,1.052.279h0.959a1.55,1.55,0,0,1,1.268.681l0.557,0.805a2.62,2.62,0,0,0,.8.743l0.866,0.465a1.572,1.572,0,0,1,.805,1.207l0.093,0.96a2.047,2.047,0,0,0,.371,1.022l0.557,0.805A1.317,1.317,0,0,1,240.165,228.79Zm-9.126-6.007a6.379,6.379,0,1,0,6.373,6.379A6.367,6.367,0,0,0,231.039,222.783Zm0,12.045a5.667,5.667,0,1,1,5.661-5.666A5.667,5.667,0,0,1,231.039,234.828Zm2.227-7.834-2.846,3.283-1.268-1.27a0.35,0.35,0,1,0-.495.5l1.547,1.518a0.348,0.348,0,0,0,.247.093h0a0.383,0.383,0,0,0,.248-0.124l3.093-3.561A0.342,0.342,0,1,0,233.266,226.994Z" transform="translate(-221.031 -219)"/>
</svg>
